<svg version="1.1" id="Layer_1" xmlns:x="ns_extend;" xmlns:i="ns_ai;" xmlns:graph="ns_graphs;" xmlns="http://www.w3.org/2000/svg" xmlns:xlink="http://www.w3.org/1999/xlink" x="0px" y="0px" viewBox="0 0 281 60" style="enable-background:new 0 0 281 60;" xml:space="preserve">
 <style type="text/css">
  .st0{fill:#FF6336;}
	.st1{fill:#FFC501;}
	.st2{fill:#A4A14A;}
	.st3{fill:#FFFFFF;}
 </style>
 <metadata>
  <sfw xmlns="ns_sfw;">
   <slices>
   </slices>
   <sliceSourceBounds bottomLeftOrigin="true" height="60" width="281" x="0" y="0">
   </sliceSourceBounds>
  </sfw>
 </metadata>
 <g>
  <g>
   <polygon class="st0" points="39.3,46.9 52.5,46.9 52.5,37.6 35.5,37.6 26.2,46.9 17,37.6 0,37.6 0,46.9 13.1,46.9 26.2,60 		">
   </polygon>
   <rect y="19.1" class="st1" width="52.5" height="9.3">
   </rect>
   <rect y="0.5" class="st2" width="52.5" height="9.3">
   </rect>
  </g>
  <path class="st3" d="M73.3,0.5h8.3V46h-8.3V0.5z">
  </path>
  <path class="st3" d="M94.7,44.7c-2.6-1.5-4.7-3.5-6.3-6c-1.5-2.5-2.3-5.3-2.3-8.3s0.8-5.8,2.3-8.3s3.6-4.5,6.3-6
		c2.6-1.4,5.5-2.2,8.6-2.2s5.9,0.7,8.6,2.2c2.6,1.5,4.7,3.5,6.3,6c1.5,2.5,2.3,5.3,2.3,8.3s-0.8,5.8-2.3,8.3s-3.6,4.5-6.3,6
		c-2.6,1.5-5.5,2.2-8.6,2.2S97.3,46.2,94.7,44.7z M107.6,38.1c1.3-0.7,2.4-1.8,3.2-3.1c0.8-1.3,1.2-2.9,1.2-4.5
		c0-1.7-0.4-3.2-1.2-4.5s-1.9-2.4-3.2-3.1c-1.3-0.7-2.8-1.1-4.4-1.1s-3.1,0.4-4.4,1.1s-2.4,1.8-3.2,3.1c-0.8,1.4-1.2,2.9-1.2,4.5
		c0,1.7,0.4,3.2,1.2,4.5c0.8,1.4,1.9,2.4,3.2,3.1c1.3,0.7,2.8,1.1,4.4,1.1C104.8,39.2,106.3,38.8,107.6,38.1z">
  </path>
  <path class="st3" d="M124.8,0.5h8.3v27.1L144,14.8h9.9l-12.3,14.5L154.8,46h-10.7l-11-14.5V46h-8.3V0.5L124.8,0.5z">
  </path>
  <path class="st3" d="M162.7,44.9c-2.3-1.3-4.2-3.3-5.7-5.8c-1.4-2.5-2.2-5.4-2.2-8.7c0-3,0.7-5.8,2.1-8.3c1.4-2.5,3.3-4.5,5.7-6
		s5-2.2,7.9-2.2c2,0,3.9,0.3,5.5,1c1.7,0.7,2.9,1.6,3.8,2.7v-2.8h8.3V46h-8.3v-2.8c-1.3,1.2-2.7,2.2-4.2,2.8s-3.4,1-5.7,1
		C167.5,46.9,165,46.2,162.7,44.9z M177.9,36.7c1.6-1.7,2.3-3.8,2.3-6.3s-0.8-4.6-2.3-6.3c-1.6-1.7-3.6-2.5-6.2-2.5
		c-2.6,0-4.6,0.8-6.2,2.5c-1.6,1.7-2.3,3.8-2.3,6.3s0.8,4.6,2.3,6.3s3.6,2.5,6.2,2.5C174.3,39.2,176.3,38.3,177.9,36.7z">
  </path>
  <path class="st3" d="M194.3,0.5h8.3V46h-8.3V0.5z">
  </path>
  <path class="st3" d="M209.1,9c-1-1-1.5-2.2-1.5-3.7s0.5-2.7,1.5-3.8c1-1,2.2-1.5,3.7-1.5s2.7,0.5,3.8,1.5c1,1,1.6,2.3,1.6,3.8
		c0,1.4-0.5,2.7-1.6,3.7c-1,1-2.3,1.5-3.8,1.5C211.4,10.5,210.1,10,209.1,9z M208.7,14.8h8.3V46h-8.3V14.8z">
  </path>
  <path class="st3" d="M222.7,43.9l1.9-7.8h0.4c2.7,2.1,5.5,3.2,8.4,3.2c1.2,0,2.1-0.2,2.9-0.7c0.7-0.4,1.1-1.1,1.1-1.9
		c0-0.9-0.4-1.6-1.3-2.1c-0.9-0.6-2.5-1.2-4.8-2c-2.4-0.8-4.3-2-5.6-3.5s-2-3.3-2-5.4c0-2.9,1.1-5.2,3.3-7s4.9-2.7,8.2-2.7
		c1.7,0,3.2,0.2,4.5,0.5s2.5,0.8,3.7,1.6l0.3,8h-0.4c-1.5-1-2.9-1.7-4.1-2.2c-1.2-0.5-2.5-0.7-4-0.7c-1.1,0-1.9,0.2-2.6,0.6
		c-0.7,0.4-1,1-1,1.6c0,0.9,0.4,1.6,1.3,2.2c0.8,0.6,2.4,1.2,4.7,2c2.6,0.9,4.7,2,6,3.2s2.1,3.2,2.1,5.9c0,2.2-0.6,4.1-1.6,5.6
		c-1.1,1.6-2.5,2.7-4.3,3.5S236,47,233.9,47C229.5,46.9,225.8,45.9,222.7,43.9z">
  </path>
  <path class="st3" d="M257.5,44.7c-2.6-1.5-4.7-3.5-6.2-6c-1.5-2.6-2.2-5.4-2.2-8.5c0-3,0.7-5.8,2.1-8.2c1.4-2.5,3.4-4.4,5.9-5.9
		c2.5-1.4,5.3-2.1,8.5-2.1s6,0.8,8.3,2.2c2.3,1.5,4.1,3.5,5.3,6c1.2,2.5,1.8,5.2,1.8,8v2.5h-24c0.5,2.4,1.6,4.2,3.3,5.4
		c1.7,1.2,3.9,1.8,6.6,1.8c4.2,0,7.8-1.4,10.9-4.1h0.9l-0.3,7.9c-1.9,1.1-3.9,1.9-6,2.5s-4.1,0.8-6.1,0.8
		C263,46.9,260.1,46.2,257.5,44.7z M272.6,26.9c-0.2-1.9-1-3.4-2.4-4.5s-3-1.6-5-1.6c-1.9,0-3.6,0.5-5.1,1.6c-1.4,1-2.4,2.5-2.9,4.5
		H272.6z">
  </path>
 </g>
</svg>