<svg version="1.1" id="Layer_1" xmlns:x="ns_extend;" xmlns:i="ns_ai;" xmlns:graph="ns_graphs;" xmlns="http://www.w3.org/2000/svg" xmlns:xlink="http://www.w3.org/1999/xlink" x="0px" y="0px" viewBox="0 0 1953.7 565.8" style="enable-background:new 0 0 1953.7 565.8;" xml:space="preserve">
 <style type="text/css">
  .st0{fill:#FF4500;}
 </style>
 <metadata>
  <sfw xmlns="ns_sfw;">
   <slices>
   </slices>
   <sliceSourceBounds bottomLeftOrigin="true" height="565.8" width="1953.7" x="23.1" y="17.7">
   </sliceSourceBounds>
  </sfw>
 </metadata>
 <g>
  <path class="st0" d="M272.9,175.8l-45.6,108.4c-5.8-2.9-19.4-6.1-32.3-6.1s-25.9,3.2-38.4,9.3c-24.8,12.6-43.1,37.7-43.1,74V560H0
		V173.6h110.3v54.2h2.1c25.9-34.5,65.4-60,116.7-60C247.8,167.9,265.7,171.5,272.9,175.8L272.9,175.8z">
  </path>
  <path class="st0" d="M251,367.9c0-111.7,76.5-200,191.1-200c103.8,0,178.1,75.8,178.1,182.4c0,18.7-1.8,36.3-5.7,53.1h-260
		c11.9,40.6,47,72.2,99.8,72.2c29.1,0,70.4-10.4,92.7-27.6l35.2,84.7c-32.7,22.3-82.6,33-126.4,33C333.2,565.8,251,486.8,251,367.9
		L251,367.9z M352.2,332.3h163.4c0-49.6-33.8-75.8-75.1-75.8C393.9,256.6,362.3,286.7,352.2,332.3L352.2,332.3z">
  </path>
  <path class="st0" d="M1594,0c38.1,0,69.3,31.2,69.3,69.3s-31.2,69.3-69.3,69.3s-69.3-31.2-69.3-69.3S1555.9,0,1594,0L1594,0z
		 M1650.7,560h-113.5V173.6h113.5V560L1650.7,560z">
  </path>
  <path class="st0" d="M935,7l-0.4,203.3h-2.2c-31.2-29.8-65-42-109.2-42c-108.8,0-181,87.6-181,198.6s67.5,198.9,177.4,198.9
		c46,0,89.4-15.8,117.4-51.7h3.2v46h108.1V7H935L935,7z M940.5,467.9h-3.8l-25.3-26.3c-16.5,16.5-39,26.3-65.4,26.3
		c-55.6,0-94.5-44-94.5-101s38.9-101,94.5-101s94.5,44,94.5,101L940.5,467.9L940.5,467.9z">
  </path>
  <path class="st0" d="M1368.5,7l-0.4,203.3h-2.2c-31.2-29.8-65-42-109.2-42c-108.8,0-181,87.6-181,198.6s67.5,198.9,177.4,198.9
		c46,0,89.4-15.8,117.4-51.7h3.2v46h108.1V7H1368.5z M1373.3,467.9h-3.8l-25.3-26.3c-16.5,16.5-39.1,26.3-65.4,26.3
		c-55.6,0-94.5-44-94.5-101s38.9-101,94.5-101s94.5,44,94.5,101L1373.3,467.9L1373.3,467.9z">
  </path>
  <path class="st0" d="M1870.8,173.6h83v96.6h-83V560h-113.5V270.2h-82.6v-96.6h82.6v-105h113.5V173.6L1870.8,173.6z">
  </path>
 </g>
</svg>