<?xml version="1.0" encoding="UTF-8"?>
<svg version="1.1" xmlns="http://www.w3.org/2000/svg" width="314" height="64">
<path d="M0 0 C30.75675676 0 30.75675676 0 36.5 5.3125 C40.07989868 11.72648513 40.5770237 16.86860608 39 24 C37.05725952 28.10964332 35.33830945 30.07912318 31.25 31.875 C30.1775 32.24625 29.105 32.6175 28 33 C32.78140581 40.6570762 32.78140581 40.6570762 37.9375 48.0625 C40 51 40 51 40 53 C35.13427583 53.95576725 35.13427583 53.95576725 32 53 C28.15114481 49.09485443 25.18228906 44.4576107 22.80859375 39.5234375 C21.69261841 37.2585429 20.88558384 35.69114714 19 34 C14.85717462 33.00920602 11.3101228 33 7 33 C7 39.6 7 46.2 7 53 C4.69 53 2.38 53 0 53 C0 35.51 0 18.02 0 0 Z M7 6 C7 12.93 7 19.86 7 27 C10.031875 27.0825 13.06375 27.165 16.1875 27.25 C17.13391357 27.28641602 18.08032715 27.32283203 19.05541992 27.36035156 C23.21574001 27.41511005 25.4337676 27.35090458 29.05078125 25.109375 C32.29758257 21.59580243 32.39643081 18.905589 32.3515625 14.26171875 C32.13289047 11.6876003 32.13289047 11.6876003 29.75 9 C24.99333188 5.540605 20.46859787 5.87233244 14.75 5.9375 C10.91375 5.9684375 10.91375 5.9684375 7 6 Z " fill="#172F35" transform="translate(274,10)"/>
<path d="M0 0 C12.54 0 25.08 0 38 0 C38 1.98 38 3.96 38 6 C27.77 6 17.54 6 7 6 C7 11.61 7 17.22 7 23 C15.58 23 24.16 23 33 23 C33 24.98 33 26.96 33 29 C24.42 29 15.84 29 7 29 C7 34.94 7 40.88 7 47 C17.23 47 27.46 47 38 47 C38 48.98 38 50.96 38 53 C25.46 53 12.92 53 0 53 C0 35.51 0 18.02 0 0 Z " fill="#172F35" transform="translate(226,10)"/>
<path d="M0 0 C0 2.31 0 4.62 0 7 C-1.03125 6.67 -2.0625 6.34 -3.125 6 C-10.4229861 4.20156771 -18.61880696 3.60088564 -25.625 6.5 C-31.09753991 12.26056833 -32.35164884 17.1020883 -32.4375 25.0625 C-32.45272705 26.07135254 -32.45272705 26.07135254 -32.46826172 27.10058594 C-32.3806331 32.14848793 -31.2777762 35.59192951 -29 40 C-24.48272181 44.29141428 -21.11602308 45.13999025 -15 45.125 C-13.948125 45.12757812 -12.89625 45.13015625 -11.8125 45.1328125 C-8.91873122 45.12353635 -8.91873122 45.12353635 -6 44 C-5.67 38.06 -5.34 32.12 -5 26 C-2.69 26 -0.38 26 2 26 C2 33.59 2 41.18 2 49 C-4.65782606 51.21927535 -8.96250349 52.48482137 -15.625 52.375 C-16.69234375 52.39240234 -16.69234375 52.39240234 -17.78125 52.41015625 C-24.00136115 52.37597982 -28.34854273 50.60320672 -33.6875 47.375 C-40.49488196 40.38363475 -41.0837533 31.38036998 -41 22 C-40.4799642 14.71949884 -38.79840589 8.62250884 -34 3 C-24.43166773 -5.07992503 -11.20194888 -4.15391417 0 0 Z " fill="#172F35" transform="translate(97,12)"/>
<path d="M0 0 C13.86 0 27.72 0 42 0 C42 1.98 42 3.96 42 6 C36.39 6 30.78 6 25 6 C25 21.51 25 37.02 25 53 C22.69 53 20.38 53 18 53 C18 37.49 18 21.98 18 6 C12.06 6 6.12 6 0 6 C0 4.02 0 2.04 0 0 Z " fill="#172F35" transform="translate(174,10)"/>
<path d="M0 0 C13.86 0 27.72 0 42 0 C42 1.98 42 3.96 42 6 C36.39 6 30.78 6 25 6 C25 21.51 25 37.02 25 53 C22.69 53 20.38 53 18 53 C18 37.49 18 21.98 18 6 C12.06 6 6.12 6 0 6 C0 4.02 0 2.04 0 0 Z " fill="#172F35" transform="translate(127,10)"/>
<path d="M0 0 C2.64 0 5.28 0 8 0 C8 18.15 8 36.3 8 55 C5.36 55 2.72 55 0 55 C0 36.85 0 18.7 0 0 Z " fill="#ED1A55" transform="translate(24,9)"/>
<path d="M0 0 C2.31 0 4.62 0 7 0 C7 18.15 7 36.3 7 55 C4.69 55 2.38 55 0 55 C0 36.85 0 18.7 0 0 Z " fill="#ED1A55" transform="translate(12,9)"/>
<path d="M0 0 C2.31 0 4.62 0 7 0 C7 17.49 7 34.98 7 53 C4.69 53 2.38 53 0 53 C0 35.51 0 18.02 0 0 Z " fill="#172F35" transform="translate(111,10)"/>
<path d="M0 0 C2.31 0 4.62 0 7 0 C7 13.53 7 27.06 7 41 C4.69 41 2.38 41 0 41 C0 27.47 0 13.94 0 0 Z " fill="#ED1A55" transform="translate(0,0)"/>
<path d="M0 0 C2.31 0 4.62 0 7 0 C7 10.56 7 21.12 7 32 C4.69 32 2.38 32 0 32 C0 21.44 0 10.88 0 0 Z " fill="#ED1A55" transform="translate(37,9)"/>
</svg>
