<?xml version="1.0" encoding="UTF-8"?>
<svg version="1.1" xmlns="http://www.w3.org/2000/svg" width="854" height="148">
<path d="M0 0 C7.25914495 6.00413004 14.10918092 12.88569521 19.34228516 20.73535156 C21.61189058 21.18432943 21.61189058 21.18432943 24.27929688 21.10424805 C25.82132278 21.11457314 25.82132278 21.11457314 27.39450073 21.12510681 C29.06634933 21.11586937 29.06634933 21.11586937 30.77197266 21.10644531 C33.11702619 21.12382872 35.46207824 21.14141309 37.80712891 21.15917969 C41.51597831 21.16925942 45.22473121 21.17284814 48.93359375 21.17114258 C52.50501572 21.17470592 56.07568426 21.20202915 59.64697266 21.23144531 C60.75748993 21.22326279 61.8680072 21.21508026 63.01217651 21.20664978 C64.04649811 21.21668533 65.0808197 21.22672089 66.14648438 21.23706055 C67.05534393 21.23689438 67.96420349 21.23672821 68.90060425 21.23655701 C72.1028905 21.89073051 73.30345284 23.23981426 75.34228516 25.73535156 C75.90869141 27.73535156 75.90869141 27.73535156 75.90478516 29.73535156 C75.92669922 30.39535156 75.94861328 31.05535156 75.97119141 31.73535156 C74.93946788 35.01636055 73.25461147 35.94675836 70.34228516 37.73535156 C66.96574158 38.28396659 63.64206052 38.20120616 60.22900391 38.12597656 C59.25945267 38.12031677 58.28990143 38.11465698 57.29096985 38.10882568 C54.2033997 38.08648862 51.11700277 38.03629654 48.02978516 37.98535156 C45.93279674 37.96528314 43.83579009 37.94703297 41.73876953 37.93066406 C36.60615809 37.88663243 31.47442034 37.81762267 26.34228516 37.73535156 C26.67228516 38.93160156 27.00228516 40.12785156 27.34228516 41.36035156 C28.3137051 44.88174886 28.42592293 48.08665385 28.34228516 51.73535156 C29.09761536 51.7242485 29.85294556 51.71314545 30.63116455 51.70170593 C37.75247453 51.6014845 44.87344222 51.52537789 51.99527359 51.4762907 C55.6566605 51.45020566 59.31746432 51.41483008 62.97851562 51.3581543 C66.51229319 51.30379171 70.0455103 51.2739228 73.57967377 51.26096535 C75.58286543 51.24724189 77.58583184 51.20821454 79.58868408 51.16886902 C80.80964783 51.16849136 82.03061157 51.16811371 83.28857422 51.16772461 C84.36335022 51.15662155 85.43812622 51.14551849 86.54547119 51.13407898 C89.34228516 51.73535156 89.34228516 51.73535156 91.72454834 54.04426575 C93.34228516 56.73535156 93.34228516 56.73535156 93.27978516 60.36035156 C92.02482484 64.87820871 92.02482484 64.87820871 89.34228516 66.73535156 C86.16388825 67.7948172 83.92383168 67.85599452 80.58569336 67.84887695 C79.40469559 67.84880142 78.22369781 67.84872589 77.00691223 67.84864807 C75.73184311 67.84348679 74.45677399 67.8383255 73.14306641 67.83300781 C71.8377446 67.83159286 70.53242279 67.83017792 69.18754578 67.82872009 C65.72038859 67.82490536 62.25327342 67.815084 58.78613281 67.80401611 C55.24691333 67.79377954 51.70768705 67.78921766 48.16845703 67.78417969 C41.2263825 67.77346079 34.28433585 67.7563969 27.34228516 67.73535156 C27.28169922 68.35023437 27.22111328 68.96511719 27.15869141 69.59863281 C27.07490234 70.406875 26.99111328 71.21511719 26.90478516 72.04785156 C26.78296875 73.24861328 26.78296875 73.24861328 26.65869141 74.47363281 C26.34228516 76.73535156 26.34228516 76.73535156 25.34228516 79.73535156 C26.6489917 79.74993408 27.95569824 79.7645166 29.30200195 79.77954102 C34.15709591 79.83757971 39.01172879 79.91481272 43.86645508 79.99780273 C45.96631376 80.03102578 48.06626119 80.05906587 50.16625977 80.08178711 C53.18755859 80.11538092 56.20804616 80.1676999 59.22900391 80.22363281 C60.16564377 80.23002274 61.10228363 80.23641266 62.06730652 80.24299622 C66.93285977 80.35237232 70.42765036 80.50492383 74.34228516 83.73535156 C75.88815391 86.82708908 75.63588037 89.32964709 75.34228516 92.73535156 C73.32163157 95.37644107 72.16112591 96.59152749 68.84727478 97.17358398 C67.91226639 97.14627197 66.977258 97.11895996 66.01391602 97.09082031 C64.94858139 97.07180664 63.88324677 97.05279297 62.78562927 97.03320312 C61.63772415 96.99678711 60.48981903 96.96037109 59.30712891 96.92285156 C56.86379212 96.89834939 54.42042981 96.87629253 51.97705078 96.85644531 C48.13351185 96.80500543 44.29317116 96.7357459 40.45092773 96.62255859 C25.71044605 95.42312003 25.71044605 95.42312003 12.42480469 100.26269531 C10.43653145 102.26509648 9.11226101 104.16382853 7.54760742 106.55957031 C4.74599482 110.59404134 1.36481383 112.99432389 -2.65771484 115.73535156 C5.07108186 115.82870999 12.79974241 115.89944596 20.52896404 115.94260025 C24.11936786 115.96332955 27.70938131 115.99137198 31.29956055 116.03710938 C34.77500463 116.08109966 38.25007722 116.10459832 41.72577858 116.11486053 C43.67364906 116.12566939 45.6213735 116.15680683 47.5690155 116.1885376 C58.18173385 116.19116515 68.43764416 114.35729225 77.34228516 108.23535156 C78.18791016 107.66816406 79.03353516 107.10097656 79.90478516 106.51660156 C92.29873508 97.45948431 99.91733405 84.92290633 102.5859375 69.83911133 C104.85320697 54.89095101 101.04529473 41.01245092 92.34228516 28.73535156 C83.32806698 16.68997871 70.10195701 9.20520459 55.34228516 6.73535156 C51.65744987 6.39044083 47.977959 6.23388138 44.27978516 6.11035156 C43.31878906 6.07167969 42.35779297 6.03300781 41.36767578 5.99316406 C39.02605701 5.89996531 36.68442479 5.81415971 34.34228516 5.73535156 C35.34228516 3.73535156 35.34228516 3.73535156 38.09619141 2.66503906 C58.68200794 -3.03564859 81.00304232 -2.3731562 100.06103516 7.69238281 C105.05535623 10.80194224 109.223765 14.55726603 113.34228516 18.73535156 C116.58627554 21.97934195 120.75360542 21.08642272 125.17822266 21.19628906 C128.92661761 21.8349045 130.11484834 22.69744978 132.34228516 25.73535156 C133.12398007 28.49554326 133.01538688 30.95167664 132.34228516 33.73535156 C130.02978516 36.23535156 130.02978516 36.23535156 127.34228516 37.73535156 C126.35228516 37.73535156 125.36228516 37.73535156 124.34228516 37.73535156 C124.55884766 38.33863281 124.77541016 38.94191406 124.99853516 39.56347656 C125.41619141 40.76230469 125.41619141 40.76230469 125.84228516 41.98535156 C126.25994141 43.16871094 126.25994141 43.16871094 126.68603516 44.37597656 C127.34228516 46.73535156 127.34228516 46.73535156 127.34228516 50.73535156 C127.93396484 50.70054688 128.52564453 50.66574219 129.13525391 50.62988281 C134.06351952 50.46105153 137.35882932 50.47616042 141.34228516 53.73535156 C143.34228516 56.73535156 143.34228516 56.73535156 143.15478516 60.23535156 C142.09606633 64.79598653 142.09606633 64.79598653 139.34228516 66.73535156 C136.42431641 67.02832031 136.42431641 67.02832031 133.15478516 66.92285156 C132.06810547 66.89578125 130.98142578 66.86871094 129.86181641 66.84082031 C128.61464844 66.78861328 128.61464844 66.78861328 127.34228516 66.73535156 C127.38353516 67.74597656 127.42478516 68.75660156 127.46728516 69.79785156 C127.33654673 73.91611208 126.60977729 76.8536569 125.34228516 80.73535156 C126.29103516 80.98285156 127.23978516 81.23035156 128.21728516 81.48535156 C131.34228516 82.73535156 131.34228516 82.73535156 132.77978516 84.42285156 C133.60970039 87.83472531 133.20375379 90.3510105 132.34228516 93.73535156 C130.15776956 95.89521123 128.95280918 96.6959319 125.86181641 96.89550781 C124.96849609 96.86328125 124.07517578 96.83105469 123.15478516 96.79785156 C119.34564243 97.02161963 117.75358229 97.38912909 114.79931641 99.87597656 C113.28853849 101.6069181 111.82221205 103.37810725 110.41259766 105.19238281 C108.27757891 107.81483036 106.00409627 109.66813039 103.34228516 111.73535156 C104.41599365 111.81575684 105.48970215 111.89616211 106.59594727 111.97900391 C110.61648641 112.2818322 114.63632021 112.59328885 118.65600586 112.90722656 C120.38890077 113.04138201 122.1219735 113.17326221 123.85522461 113.30273438 C126.3605398 113.49029036 128.86508059 113.68628527 131.36962891 113.88378906 C132.13250717 113.93908783 132.89538544 113.9943866 133.68138123 114.05136108 C139.03191602 114.48449459 144.13208816 115.45096691 149.34228516 116.73535156 C149.67228516 118.05535156 150.00228516 119.37535156 150.34228516 120.73535156 C119.2179245 129.22381356 84.00892558 126.89275238 52.03926516 126.9355402 C49.90441308 126.93853182 47.76956565 126.94264475 45.63471603 126.94704437 C38.90238599 126.96057671 32.17006735 126.970323 25.43772471 126.97424626 C17.75710037 126.97875341 10.07665161 126.99648336 2.39608061 127.02524686 C-3.61743113 127.04696495 -9.63089363 127.05695519 -15.64444411 127.05828738 C-19.20539928 127.05932412 -22.76618611 127.06499122 -26.32709885 127.08310699 C-54.0732212 127.21625711 -74.22178815 124.55770486 -95.74755859 105.72753906 C-97.81938774 103.56673566 -99.21501152 101.34940335 -100.65771484 98.73535156 C-97.34758282 100.20652135 -94.94480562 102.11454407 -92.22021484 104.48535156 C-79.94860059 114.45490524 -65.04187016 118.53432932 -49.38818359 117.52441406 C-34.12979704 115.56868374 -18.52479628 108.91428541 -8.65771484 96.73535156 C0.1516421 84.70352422 4.71257915 72.19097172 5.88916016 57.42285156 C5.97520508 56.35421875 6.06125 55.28558594 6.14990234 54.18457031 C6.21338867 53.37632813 6.276875 52.56808594 6.34228516 51.73535156 C-0.02626482 51.75173045 -6.39366658 51.8068636 -12.76171875 51.88793945 C-14.92440341 51.91102229 -17.08719894 51.92549217 -19.25 51.9309082 C-22.37357908 51.94026886 -25.49543762 51.98141539 -28.61865234 52.02832031 C-30.05052383 52.02242134 -30.05052383 52.02242134 -31.51132202 52.0164032 C-39.10815449 52.1785695 -45.86377683 54.14598402 -51.49911499 59.47746277 C-55.80748661 64.72867425 -56.59450537 68.85798664 -58.65771484 75.73535156 C-42.81771484 76.23035156 -42.81771484 76.23035156 -26.65771484 76.73535156 C-30.17218126 83.7642844 -36.3806387 87.9529401 -43.65771484 90.73535156 C-52.56651531 92.93703547 -62.28088958 92.61427558 -70.65771484 88.73535156 C-78.39533452 83.9949622 -85.28382799 77.04934407 -88.18505859 68.25878906 C-90.42924204 56.27744603 -88.80833351 45.61871961 -81.97021484 35.48535156 C-75.69494516 27.70024255 -66.99572018 23.55958929 -57.15380859 22.45410156 C-47.28096257 22.08329044 -38.11295758 25.16381217 -30.65771484 31.73535156 C-29.66771484 33.71535156 -29.66771484 33.71535156 -28.65771484 35.73535156 C-18.75771484 35.73535156 -8.85771484 35.73535156 1.34228516 35.73535156 C-7.90055326 17.24967473 -18.73322861 5.56386489 -38.53271484 -1.07714844 C-54.23029843 -4.95144566 -70.80627714 -2.77209541 -84.90771484 4.92285156 C-90.75920977 8.54071133 -95.74483919 12.94203704 -100.65771484 17.73535156 C-100.65771484 12.78523473 -96.96082375 10.17211227 -93.65771484 6.73535156 C-93.10212891 6.14238281 -92.54654297 5.54941406 -91.97412109 4.93847656 C-68.99458101 -17.37573162 -25.20050667 -19.2251288 0 0 Z " fill="#F78557" transform="translate(101.65771484375,21.2646484375)"/>
<path d="M0 0 C10.07498243 7.83772218 18.41993649 16.71430431 22.1875 29.1875 C17.97988536 29.39147024 13.77354543 29.51536067 9.5625 29.625 C8.37269531 29.68365234 7.18289063 29.74230469 5.95703125 29.80273438 C-2.7446599 29.97287917 -2.7446599 29.97287917 -5.81811523 27.71240234 C-7.28637933 25.93736128 -8.53637609 24.10248812 -9.8125 22.1875 C-19.58706539 14.6662128 -29.61541246 12.11784068 -41.8125 13.1875 C-53.30523983 15.15487344 -62.03780679 21.88379236 -68.8125 31.1875 C-73.98832622 40.38730672 -75.50692702 50.80948065 -73.12890625 61.1640625 C-69.6430726 71.43353091 -64.18608727 79.52214506 -54.8125 85.1875 C-44.52128607 90.07322783 -34.80363962 91.41235658 -23.8125 88.1875 C-12.56676514 83.76802472 -6.76605993 78.60622987 -0.8125 68.1875 C-14.6725 68.1875 -28.5325 68.1875 -42.8125 68.1875 C-41.71097558 58.27378026 -40.30692789 52.78206497 -32.88671875 46.51171875 C-25.94915811 42.08265461 -20.27745725 41.77614245 -12.19140625 41.89453125 C-11.09150864 41.89877609 -9.99161102 41.90302094 -8.85838318 41.90739441 C-5.36366755 41.92411598 -1.86953979 41.96175705 1.625 42 C4.00194477 42.01505522 6.37889862 42.02874216 8.75585938 42.04101562 C14.56660503 42.07399815 20.3770105 42.1241327 26.1875 42.1875 C26.21466432 45.04824201 26.2344181 47.9087217 26.25 50.76953125 C26.25837891 51.57201294 26.26675781 52.37449463 26.27539062 53.20129395 C26.34369534 69.95729381 19.65021817 84.70995569 8.015625 96.68359375 C-0.48532275 104.20998533 -9.7445289 109.41638354 -20.8125 112.1875 C-21.555 112.37699219 -22.2975 112.56648438 -23.0625 112.76171875 C-39.85988529 115.36245028 -56.60848485 112.83510667 -70.8125 103.1875 C-74.35546197 100.37918162 -77.61420054 97.38032292 -80.8125 94.1875 C-81.4621875 93.54941406 -82.111875 92.91132812 -82.78125 92.25390625 C-91.85278754 82.68502564 -96.98335248 69.27798048 -97.8125 56.1875 C-97.86535156 55.46433594 -97.91820312 54.74117188 -97.97265625 53.99609375 C-98.60161719 37.39699413 -92.76920933 21.59425909 -81.9375 9.125 C-60.4306012 -12.77591832 -25.71874544 -18.08127269 0 0 Z " fill="#24275E" transform="translate(407.8125,26.8125)"/>
<path d="M0 0 C8.79438161 8.119513 14.65715876 19.62292211 15.39717102 31.63989258 C15.40701523 32.46642334 15.41685944 33.2929541 15.42700195 34.14453125 C15.44625481 35.56125122 15.44625481 35.56125122 15.46589661 37.0065918 C15.47328354 38.0150415 15.48067047 39.02349121 15.48828125 40.0625 C15.496353 41.10897705 15.50442474 42.1554541 15.51274109 43.23364258 C15.5265456 45.44252888 15.53728393 47.65143619 15.54516602 49.86035156 C15.55672233 52.12018069 15.57723111 54.37998177 15.60668945 56.63964844 C15.64926438 59.90578754 15.66551801 63.17111825 15.67578125 66.4375 C15.69328934 67.44594971 15.71079742 68.45439941 15.72883606 69.4934082 C15.7150794 73.93455878 15.70278462 76.50870978 13.34838867 80.36328125 C9.38346664 83.92825129 5.70879206 83.36614391 0.625 83.3125 C-0.57769531 83.30573242 -0.57769531 83.30573242 -1.8046875 83.29882812 C-3.78649006 83.28703168 -5.76825433 83.26909605 -7.75 83.25 C-8.08 81.6 -8.41 79.95 -8.75 78.25 C-9.53503906 78.59933594 -10.32007813 78.94867188 -11.12890625 79.30859375 C-21.77058133 83.91781007 -21.77058133 83.91781007 -27.75 84.25 C-28.48347656 84.30027344 -29.21695313 84.35054688 -29.97265625 84.40234375 C-42.98893248 84.91804408 -55.04599107 80.47981901 -64.9375 72.125 C-75.16160947 62.43138677 -79.89350659 51.24614291 -80.75 37.328125 C-80.75 22.98256549 -75.69584634 11.62488772 -65.94140625 1.34375 C-47.18741575 -16.43550087 -19.76072339 -15.53571349 0 0 Z M-52.1875 19.5625 C-57.23881771 26.2021924 -58.69800084 32.9944927 -57.75 41.25 C-56.22399539 48.30777134 -52.42823871 53.61126353 -46.59375 57.796875 C-39.84597091 61.69656551 -33.41642711 62.29184779 -25.75 61.25 C-19.48213896 59.48586693 -14.75489696 55.27471157 -10.75 50.25 C-6.98396846 43.47114323 -5.88113877 36.70908965 -7.75 29.1875 C-10.35598582 21.53613525 -15.83010647 16.18175769 -22.75 12.25 C-33.46697786 8.67767405 -44.50952841 11.35760879 -52.1875 19.5625 Z " fill="#24275E" transform="translate(520.75,54.75)"/>
<path d="M0 0 C7.08304477 5.85970322 12.49664852 12.44099902 16 21 C16 21.99 16 22.98 16 24 C11.97972342 24.17528316 7.9604372 24.28118359 3.9375 24.375 C2.80376953 24.42527344 1.67003906 24.47554687 0.50195312 24.52734375 C-8.97039797 24.69304085 -8.97039797 24.69304085 -13.06640625 21.09375 C-13.79839233 20.29614258 -13.79839233 20.29614258 -14.54516602 19.48242188 C-18.15399736 15.80515658 -23.39338145 14.83438411 -28.375 14.5625 C-35.70093397 14.87827302 -41.90762679 17.37068297 -46.9375 22.75 C-51.21132006 28.19307272 -53.65767043 33.80107232 -53.3515625 40.85546875 C-52.2143792 47.79228686 -49.45509699 53.49954498 -44 58 C-43.360625 58.556875 -42.72125 59.11375 -42.0625 59.6875 C-36.17863874 63.43177535 -29.79116144 63.89260523 -23 63 C-15.90771967 60.65934658 -12.91257581 57.89509098 -8 52 C-16.25 51.67 -24.5 51.34 -33 51 C-31.86598596 41.92788768 -31.86598596 41.92788768 -28.8125 38.625 C-28.24144531 37.97789063 -27.67039062 37.33078125 -27.08203125 36.6640625 C-21.99727519 32.60007361 -16.29094322 32.72484814 -10.1015625 32.8046875 C-8.84912247 32.80893234 -8.84912247 32.80893234 -7.57138062 32.81326294 C-4.92243709 32.82439699 -2.27384016 32.84948873 0.375 32.875 C2.17838051 32.88503857 3.98176636 32.89416288 5.78515625 32.90234375 C10.19023633 32.9243141 14.59505953 32.95879679 19 33 C19.03234095 35.04807116 19.05522051 37.09629287 19.07421875 39.14453125 C19.09488403 40.85539917 19.09488403 40.85539917 19.1159668 42.60083008 C18.69867027 54.8324503 12.86775531 66.68539902 4 75 C-7.46738548 84.58555812 -20.23368258 87.98442116 -35 87 C-48.69026442 84.82938379 -59.53496555 78.30872157 -68.08203125 67.32421875 C-75.52138385 56.25132973 -78.21430765 44.11973187 -76.3125 30.875 C-73.66694569 17.52539374 -67.1204745 7.00594304 -56 -1 C-38.3274909 -11.32951307 -17.15367187 -12.22682777 0 0 Z " fill="#24275E" transform="translate(835,51)"/>
<path d="M0 0 C10.1893802 -0.43903972 20.36150327 2.19530185 27.98828125 9.15625 C34.97753484 17.43299767 38.11015105 26.89966203 38.11767578 37.65893555 C38.12082794 38.95345139 38.1239801 40.24796722 38.12722778 41.58171082 C38.12543835 42.98546381 38.12338749 44.38921649 38.12109375 45.79296875 C38.12176771 47.23834754 38.1227385 48.68372621 38.12399292 50.12910461 C38.12546416 53.1509408 38.12333286 56.17274735 38.11865234 59.19458008 C38.11294003 63.0718123 38.11624715 66.94897553 38.12222481 70.82620525 C38.12583285 73.80726139 38.12469098 76.78830106 38.12209702 79.76935768 C38.12142921 81.19953227 38.12225106 82.62970835 38.12457657 84.05988121 C38.12710868 86.05383654 38.1225668 88.04779711 38.11767578 90.04174805 C38.11688019 91.17694382 38.11608459 92.31213959 38.11526489 93.48173523 C37.98828125 96.15625 37.98828125 96.15625 36.98828125 98.15625 C29.72828125 98.15625 22.46828125 98.15625 14.98828125 98.15625 C14.97893555 96.26463135 14.96958984 94.3730127 14.95996094 92.42407227 C14.9243133 86.14546826 14.87043956 79.86722303 14.80437851 73.58886814 C14.76501703 69.78554729 14.73277364 65.98245402 14.71728516 62.17895508 C14.70204302 58.5022658 14.66746633 54.82620268 14.61997223 51.14979362 C14.60523564 49.75337125 14.5972447 48.35685944 14.5963974 46.96035957 C14.61354678 35.45962902 14.61354678 35.45962902 9.98828125 25.15625 C5.09593489 21.15457207 -0.13065609 20.52025719 -6.328125 20.76953125 C-11.67825158 21.54051019 -15.43258143 23.66247145 -19.32421875 27.34375 C-24.17976646 35.43632951 -24.46356176 43.42327719 -24.48828125 52.6875 C-24.51165054 54.59589661 -24.51165054 54.59589661 -24.53549194 56.54284668 C-24.57477445 59.89615638 -24.60223731 63.24909565 -24.62298584 66.60253906 C-24.65475565 71.35360776 -24.70601506 76.10447822 -24.7593689 80.85534668 C-24.78665638 83.38043454 -24.80798098 85.90559494 -24.82290649 88.43078613 C-24.83829971 90.12890442 -24.83829971 90.12890442 -24.85400391 91.86132812 C-24.86049957 92.86232544 -24.86699524 93.86332275 -24.87368774 94.89465332 C-25.01171875 97.15625 -25.01171875 97.15625 -26.01171875 98.15625 C-33.27171875 98.15625 -40.53171875 98.15625 -48.01171875 98.15625 C-48.01171875 66.47625 -48.01171875 34.79625 -48.01171875 2.15625 C-32.67838542 2.15625 -32.67838542 2.15625 -28.26171875 5.46875 C-26.67004507 7.61750946 -26.47086386 9.55017634 -26.01171875 12.15625 C-25.53863281 11.69734375 -25.06554687 11.2384375 -24.578125 10.765625 C-17.07961004 3.8079386 -10.21207826 0.79317113 0 0 Z " fill="#24275E" transform="translate(714.01171875,39.84375)"/>
<path d="M0 0 C2.701875 -0.103125 5.40375 -0.20625 8.1875 -0.3125 C9.02949951 -0.35802002 9.87149902 -0.40354004 10.73901367 -0.45043945 C14.67680881 -0.52298887 16.61871718 -0.23977579 20.03125 1.90625 C22.80560318 6.26594786 22.5572556 9.76300375 22.3125 14.8125 C22.28994141 15.69615234 22.26738281 16.57980469 22.24414062 17.49023438 C22.18547428 19.6608891 22.09579979 21.8306669 22 24 C22.90363281 23.97679688 23.80726563 23.95359375 24.73828125 23.9296875 C25.91777344 23.91164063 27.09726562 23.89359375 28.3125 23.875 C30.07013672 23.84019531 30.07013672 23.84019531 31.86328125 23.8046875 C35 24 35 24 38 26 C38.2208564 28.95064148 38.28060989 31.68368231 38.1875 34.625 C38.16719727 35.82769531 38.16719727 35.82769531 38.14648438 37.0546875 C38.11109051 39.03674378 38.05728234 41.01845551 38 43 C32.72 43 27.44 43 22 43 C22.00523682 45.29702881 22.01047363 47.59405762 22.01586914 49.96069336 C22.03240555 57.53235636 22.04347143 65.10402013 22.05181217 72.67569637 C22.05704082 77.2684264 22.06413812 81.861138 22.07543945 86.45385742 C22.086269 90.88233688 22.09227698 95.31079856 22.09487724 99.73929024 C22.09673137 101.43265628 22.10035175 103.12602129 22.10573006 104.81937981 C22.1129414 107.18291232 22.1139909 109.54637045 22.11352539 111.90991211 C22.11712067 112.61697296 22.12071594 113.32403381 22.12442017 114.05252075 C22.11405216 118.88594784 22.11405216 118.88594784 21 120 C14.07 120 7.14 120 0 120 C0 94.59 0 69.18 0 43 C-4.95 43 -9.9 43 -15 43 C-15.0809313 40.39521117 -15.14045434 37.79293347 -15.1875 35.1875 C-15.21263672 34.44951172 -15.23777344 33.71152344 -15.26367188 32.95117188 C-15.29296875 30.79296875 -15.29296875 30.79296875 -15 27 C-14.01 26.01 -13.02 25.02 -12 24 C-8.04 24 -4.08 24 0 24 C0 16.08 0 8.16 0 0 Z " fill="#24275E" transform="translate(549,18)"/>
<path d="M0 0 C5.61 0 11.22 0 17 0 C22 5 22 5 22.61803246 7.39282608 C22.61472231 8.2275935 22.61141216 9.06236092 22.60800171 9.92242432 C22.61632019 10.88706604 22.62463867 11.85170776 22.63320923 12.84558105 C22.61680389 13.89201782 22.60039856 14.93845459 22.58349609 16.01660156 C22.58583252 17.12763245 22.58816895 18.23866333 22.59057617 19.38336182 C22.59219018 23.05292858 22.55816671 26.7212367 22.5234375 30.390625 C22.5166495 32.93698676 22.51192645 35.48335479 22.50918579 38.02972412 C22.49850803 43.36278742 22.47248999 48.69542479 22.43212891 54.02832031 C22.37519668 61.5578 22.35296324 69.08709951 22.33684421 76.61676073 C22.32289914 82.45807404 22.29830412 88.29934997 22.2734375 94.140625 C22.26607134 96.01872234 22.26607134 96.01872234 22.25855637 97.93476105 C22.24236032 101.45689716 22.21895911 104.97890149 22.19287109 108.50097656 C22.18861115 109.55551025 22.1843512 110.61004395 22.17996216 111.6965332 C22.17136169 112.64989563 22.16276123 113.60325806 22.15390015 114.58551025 C22.1455417 115.83539923 22.1455417 115.83539923 22.13701439 117.11053848 C22 119 22 119 21 120 C14.07 120 7.14 120 0 120 C0 80.4 0 40.8 0 0 Z " fill="#24275E" transform="translate(594,18)"/>
<path d="M0 0 C14 0 14 0 20 3 C22.57198961 6.85798441 22.27356727 10.02332984 22.24291992 14.49462891 C22.24481827 15.36152847 22.24671661 16.22842804 22.24867249 17.12159729 C22.25238047 19.9900107 22.24167717 22.85817155 22.23046875 25.7265625 C22.22927703 27.71528087 22.22882377 29.7039998 22.2290802 31.69271851 C22.22751539 35.86061119 22.21922466 40.02841798 22.20581055 44.19628906 C22.18879867 49.55115885 22.18499683 54.90593437 22.18575573 60.26082802 C22.18548446 64.36647448 22.18001063 68.47210015 22.17275429 72.57773972 C22.16956224 74.55300107 22.16759897 76.5282648 22.16686058 78.50352859 C22.16470392 81.25711374 22.15597505 84.01059677 22.14526367 86.76416016 C22.14594345 88.00002113 22.14594345 88.00002113 22.14663696 89.260849 C22.11447556 94.88552444 22.11447556 94.88552444 21 96 C14.07 96 7.14 96 0 96 C0 64.32 0 32.64 0 0 Z " fill="#24275E" transform="translate(632,42)"/>
<path d="M0 0 C3.9981904 1.90028061 6.32657739 4.95527002 8 9 C8.57865799 13.2009067 8.46725091 16.8933531 6.8125 20.8125 C3.54778852 24.75266903 1.24362519 26.69419053 -3.8125 27.9375 C-8.35857922 28.2812489 -12.091589 27.34331722 -16 25 C-19.53298624 21.46701376 -20.31891986 18.41320489 -20.625 13.5625 C-20.45753799 8.44793118 -19.06545547 5.83420383 -15.5078125 2.2421875 C-11.16780765 -1.33325691 -5.31603783 -0.62459975 0 0 Z " fill="#24275E" transform="translate(649,0)"/>
</svg>
