<svg version="1.1" id="Layer_1" xmlns="http://www.w3.org/2000/svg" xmlns:xlink="http://www.w3.org/1999/xlink" x="0px" y="0px" viewBox="0 0 311.1 63.5" style="enable-background:new 0 0 311.1 63.5;" xml:space="preserve">
 <style type="text/css">
  .st0{fill-rule:evenodd;clip-rule:evenodd;fill:url(#SVGID_1_);}
	.st1{fill:#FFFFFF;}
 </style>
 <g id="Logos">
  <linearGradient id="SVGID_1_" gradientUnits="userSpaceOnUse" x1="31.19" y1="13.59" x2="31.19" y2="76" gradientTransform="matrix(1 0 0 -1 0 76)">
   <stop offset="0" style="stop-color:#FFFFFF;stop-opacity:0.5">
   </stop>
   <stop offset="0" style="stop-color:#FFFFFF;stop-opacity:0.5">
   </stop>
   <stop offset="0.15" style="stop-color:#FFFFFF;stop-opacity:0.65">
   </stop>
   <stop offset="0.3" style="stop-color:#FFFFFF;stop-opacity:0.78">
   </stop>
   <stop offset="0.46" style="stop-color:#FFFFFF;stop-opacity:0.88">
   </stop>
   <stop offset="0.62" style="stop-color:#FFFFFF;stop-opacity:0.95">
   </stop>
   <stop offset="0.8" style="stop-color:#FFFFFF;stop-opacity:0.99">
   </stop>
   <stop offset="1" style="stop-color:#FFFFFF">
   </stop>
  </linearGradient>
  <path class="st0" d="M55,0H7.4C3.3,0,0,3.3,0,7.4l0,0V55c0,4.1,3.3,7.4,7.4,7.4c0,0,0,0,0,0H55c4.1,0,7.4-3.3,7.4-7.4v0V7.4
		C62.4,3.3,59.1,0,55,0C55,0,55,0,55,0z M26.9,45c0,1.4-1.1,2.5-2.5,2.5H14c-1.4,0-2.5-1.1-2.5-2.5V14c0-1.4,1.1-2.5,2.5-2.5h10.4
		c1.4,0,2.5,1.1,2.5,2.5V45z M50.9,30.8c0,1.4-1.1,2.5-2.5,2.5H38c-1.4,0-2.5-1.1-2.5-2.5V14c0-1.4,1.1-2.5,2.5-2.5h10.4
		c1.4,0,2.5,1.1,2.5,2.5V30.8z">
  </path>
  <path class="st1" d="M129.3,4.6v12.1H115v45.8h-13.8V16.7H86.9V4.6H129.3z">
  </path>
  <path class="st1" d="M146.8,62.4h-12.7v-45h12.7V26c2.4-6.1,6.3-9.7,13.2-9.2v13.3c-8.9-0.7-13.2,1.5-13.2,8.7L146.8,62.4z">
  </path>
  <path class="st1" d="M229.6,62.8c-8.4,0-13.6-4.1-13.6-13.5V0h12.8v47.5c0,2.7,1.8,3.7,4,3.7c0.6,0,1.3,0,1.9-0.1v11.1
		C233.1,62.6,231.3,62.8,229.6,62.8z">
  </path>
  <path class="st1" d="M256.4,62.8c-8.4,0-13.6-4.1-13.6-13.5V0h12.8v47.5c0,2.7,1.8,3.7,4,3.7c0.6,0,1.3,0,1.9-0.1v11.1
		C259.8,62.6,258.1,62.8,256.4,62.8z">
  </path>
  <path class="st1" d="M267.7,39.9c0-13.9,8-23.4,21.8-23.4s21.6,9.5,21.6,23.4s-7.9,23.6-21.6,23.6S267.7,53.7,267.7,39.9z
		 M280.2,39.9c0,6.8,2.8,12.1,9.3,12.1s9.1-5.4,9.1-12.1s-2.8-12-9.1-12S280.2,33.1,280.2,39.9L280.2,39.9z">
  </path>
  <path class="st1" d="M177.2,44c3.6,0.4,7.2,0.6,10.8,0.6c9.8,0,18-2.6,18-12.1c0-9.2-8.5-16.1-18.7-16.1c-13.7,0-22.5,10-22.5,23.8
		c0,14.4,7.6,23,24.7,23c5.1,0.1,10.1-0.8,14.9-2.7V49.9c-4.4,1.4-9.4,2.8-14.4,2.8C183.1,52.7,178.4,50.4,177.2,44z M187.1,26.3
		c3.6,0,6.5,2.4,6.5,5.8c0,4.3-4.6,5.7-9.8,5.7c-2.2,0-4.5-0.2-6.7-0.5c0.2-2.1,0.8-4.1,1.8-6C180.5,28.2,183.6,26.3,187.1,26.3
		L187.1,26.3z">
  </path>
 </g>
</svg>