<?xml version="1.0" encoding="UTF-8"?>
<svg version="1.1" xmlns="http://www.w3.org/2000/svg" width="364" height="364">
<path d="M0 0 C0.75134216 0.00182281 1.50268433 0.00364563 2.27679443 0.00552368 C13.55538181 0.05160591 24.40440173 0.52488896 35.375 3.3125 C36.04015625 3.47878906 36.7053125 3.64507812 37.390625 3.81640625 C62.86211935 10.37871873 85.68770288 25.62034234 99.54394531 48.26196289 C102.80357757 53.82412062 105.45329053 59.54070087 107.75 65.5625 C107.98871826 66.18729248 108.22743652 66.81208496 108.47338867 67.45581055 C110.38699372 72.76338275 111.2378839 77.62691948 112.375 83.3125 C92.575 83.3125 72.775 83.3125 52.375 83.3125 C49.735 78.3625 47.095 73.4125 44.375 68.3125 C35.78171182 57.64496985 22.8410653 52.02468012 9.375 50.3125 C-7.92457341 49.07557179 -24.56936843 52.2865393 -38.5625 63.0625 C-47.8324311 72.02888172 -50.73124834 83.19074766 -53.625 95.3125 C-52.92761719 95.57546875 -52.23023438 95.8384375 -51.51171875 96.109375 C-48.3724828 97.41774397 -45.4418083 98.96881674 -42.4375 100.5625 C-37.17383631 103.25120327 -31.87616204 105.4247778 -26.26171875 107.265625 C-25.09533875 107.65047058 -25.09533875 107.65047058 -23.90539551 108.04309082 C-15.58061407 110.73340887 -7.13648634 112.81073469 1.375 114.8125 C2.99553279 115.20094554 4.61589174 115.59011698 6.23608398 115.97998047 C13.42729475 117.7039994 20.62640752 119.38237628 27.84765625 120.9765625 C51.60539858 126.22398747 74.00262699 132.59956714 92.375 149.3125 C93.09171875 149.93640625 93.8084375 150.5603125 94.546875 151.203125 C107.16611649 162.84413072 114.59084093 180.55576456 115.49609375 197.59130859 C116.39851689 221.11296775 111.77633889 242.72947311 95.5 260.4921875 C74.93158681 282.24784714 47.41290397 293.28253024 17.61914062 294.41748047 C-18.74142723 295.37716103 -54.81795613 288.4104798 -82.15234375 262.75390625 C-95.90265964 249.29537426 -106.48778807 230.44949277 -109.625 211.3125 C-109.625 209.9925 -109.625 208.6725 -109.625 207.3125 C-89.165 207.3125 -68.705 207.3125 -47.625 207.3125 C-45.975 211.2725 -44.325 215.2325 -42.625 219.3125 C-34.79341345 231.21651156 -23.81475912 238.18706409 -10.0625 241.5 C9.21656097 245.32198928 29.20945491 243.70072192 46.08984375 233 C57.2704596 224.74354522 61.6728495 212.05422645 63.77734375 198.7734375 C64.01158068 196.95729908 64.19973321 195.13527461 64.375 193.3125 C63.199375 192.9721875 63.199375 192.9721875 62 192.625 C59.07065432 191.56437484 56.56803811 190.41279571 53.82714844 188.97412109 C48.52463934 186.30308556 43.14880925 184.27166767 37.515625 182.4140625 C36.4861676 182.07331696 35.45671021 181.73257141 34.39605713 181.38150024 C21.83434522 177.34295912 8.99928141 174.52756857 -3.875 171.6875 C-48.96530289 161.66608627 -48.96530289 161.66608627 -61.5625 154.625 C-62.33770996 154.20202637 -63.11291992 153.77905273 -63.91162109 153.34326172 C-81.75769388 143.26534901 -93.8949247 128.61692621 -99.65625 108.7578125 C-104.69456312 87.06507544 -101.91981252 63.09536525 -90.0625 44 C-89.64355469 43.37351563 -89.22460938 42.74703125 -88.79296875 42.1015625 C-87.43511455 40.09151275 -87.43511455 40.09151275 -85.875 36.875 C-75.39961625 18.6461826 -52.24595808 8.75657643 -32.98828125 3.35546875 C-21.99985946 0.59936062 -11.27234791 -0.05664262 0 0 Z M87.375 216.3125 C88.375 218.3125 88.375 218.3125 88.375 218.3125 Z M92.375 227.3125 C93.375 229.3125 93.375 229.3125 93.375 229.3125 Z M93.375 230.3125 C94.375 232.3125 94.375 232.3125 94.375 232.3125 Z M94.375 234.3125 C95.375 236.3125 95.375 236.3125 95.375 236.3125 Z M95.375 238.3125 C96.375 241.3125 96.375 241.3125 96.375 241.3125 Z M96.375 246.3125 C97.375 250.3125 97.375 250.3125 97.375 250.3125 Z " fill="#F04838" transform="translate(179.625,32.6875)"/>
<path d="M0 0 C7.38405799 3.98739131 12.98649708 8.45501137 18.0625 15.1875 C18.7114624 16.04722412 18.7114624 16.04722412 19.37353516 16.92431641 C26.20316278 26.1653101 29.74834294 35.72570765 32 47 C32.22719727 48.06009277 32.22719727 48.06009277 32.45898438 49.14160156 C34.74859145 60.69841916 34.74859145 60.69841916 32.06152344 65.77197266 C29.00236936 69.90000247 25.08925157 72.94773567 21 76 C19.97777344 76.80953125 18.95554687 77.6190625 17.90234375 78.453125 C-9.65106011 98.93530132 -45.62956964 103.350382 -78.98242188 98.98217773 C-108.9265129 94.55071315 -136.56619353 82.24930522 -155.72265625 58.15625 C-164.81865261 45.54979192 -174 28.87805114 -174 13 C-153.54 13 -133.08 13 -112 13 C-109.525 18.94 -109.525 18.94 -107 25 C-99.16841345 36.90401156 -88.18975912 43.87456409 -74.4375 47.1875 C-55.15843903 51.00948928 -35.16554509 49.38822192 -18.28515625 38.6875 C-7.10339866 30.43020209 -2.89394501 17.90397468 -0.59765625 4.68359375 C-0.36803559 3.12657692 -0.17770375 1.56379296 0 0 Z " fill="#F37368" transform="translate(244,227)"/>
<path d="M0 0 C1.11202789 0.00648056 1.11202789 0.00648056 2.246521 0.01309204 C13.43949286 0.08943034 24.23948026 0.60900728 35.125 3.375 C35.79015625 3.54128906 36.4553125 3.70757812 37.140625 3.87890625 C62.61211935 10.44121873 85.43770288 25.68284234 99.29394531 48.32446289 C102.55357757 53.88662062 105.20329053 59.60320087 107.5 65.625 C107.73871826 66.24979248 107.97743652 66.87458496 108.22338867 67.51831055 C110.13699372 72.82588275 110.9878839 77.68941948 112.125 83.375 C92.325 83.375 72.525 83.375 52.125 83.375 C49.485 78.425 46.845 73.475 44.125 68.375 C35.53171182 57.70746985 22.5910653 52.08718012 9.125 50.375 C-8.17457341 49.13807179 -24.81936843 52.3490393 -38.8125 63.125 C-48.36818263 72.39184588 -51.05640862 83.84071113 -53.875 96.375 C-67.18417563 89.89610799 -76.19427822 77.77970712 -81.875 64.375 C-82.17019531 63.71886719 -82.46539062 63.06273437 -82.76953125 62.38671875 C-83.68417682 60.06631251 -84.29572362 57.8038957 -84.875 55.375 C-85.03790527 54.72966309 -85.20081055 54.08432617 -85.36865234 53.41943359 C-86.99031222 46.56750031 -88.4390479 40.25951457 -84.96875 33.859375 C-82.30018066 30.60297928 -79.16016349 27.98459757 -75.875 25.375 C-74.93527344 24.56675781 -73.99554688 23.75851563 -73.02734375 22.92578125 C-52.41096203 6.22282549 -26.08024801 -0.2900583 0 0 Z " fill="#F37368" transform="translate(179.875,32.625)"/>
</svg>
