<svg version="1.1" id="Layer_1" xmlns:x="ns_extend;" xmlns:i="ns_ai;" xmlns:graph="ns_graphs;" xmlns="http://www.w3.org/2000/svg" xmlns:xlink="http://www.w3.org/1999/xlink" x="0px" y="0px" viewBox="0 0 628.1 100" style="enable-background:new 0 0 628.1 100;" xml:space="preserve">
 <style type="text/css">
  .st0{fill:#A9B5AF;}
	.st1{fill:#FF6600;}
 </style>
 <metadata>
  <sfw xmlns="ns_sfw;">
   <slices>
   </slices>
   <sliceSourceBounds bottomLeftOrigin="true" height="100" width="628.1" x="-185.3" y="-29.5">
   </sliceSourceBounds>
  </sfw>
 </metadata>
 <g>
  <path class="st0" d="M626.8,84.8l-4.4,13.9H621l-4.5-13.9l0,0v13.9h-1.2V83.6h2.2l4.2,13.2l0,0l4.2-13.2h2.1v15.1h-1.2L626.8,84.8
		L626.8,84.8L626.8,84.8z">
  </path>
  <polygon class="st0" points="613.9,83.6 607.7,83.6 606.5,83.6 600.3,83.6 600.3,84.8 606.5,84.8 606.5,98.6 607.7,98.6 
		607.7,84.8 613.9,84.8 	">
  </polygon>
  <path class="st0" d="M470.6,98.4h-8.8l-29-89v89H425V1.7h13.9l27,84.7h0.3l27.1-84.7h13.6v96.7h-7.7v-89L470.6,98.4z">
  </path>
  <path class="st1" d="M113.9,1.7v96.8h8.4V54.7h11.6c3.1-0.1,6.1,0.4,9,1.5c8.6,3.2,9.5,13.2,11.1,19.5l4.9,22.9h8.4l-5.5-26.1
		c-1.6-7.9-2.7-11.2-4.9-14.6c-2.9-4.5-11.2-7-11.2-7c13.6-2.7,19.5-11.8,19.5-24.2c0-11.4-5.5-24.8-31-24.8h-20.4V1.7z M122.3,9.4
		h11.1c22.1,0,23.4,11.8,23.4,17.1c0,4.4-0.8,20.5-26.8,20.5h-7.7L122.3,9.4L122.3,9.4L122.3,9.4z">
  </path>
  <path class="st1" d="M177.3,47.7h8.6c0.8-3.9,2.4-10.8,13.9-10.8c15,0,14.5,13,14.5,18v5.9c0,0-4.9,0-7.9,0.3
		c-11.4,0.9-30.1,3.9-30.1,21.1s14.3,17.8,17.1,17.8c4.1,0.1,8.2-0.9,11.8-2.8c3.6-2,6.7-4.7,8.9-8.1h0.3v9.4h7V52.8
		c0-6.8,0.6-22.7-20.9-22.7S177.3,44.5,177.3,47.7z M214.3,67.4c0,2.6-0.2,5.2-0.5,7.7c-1.4,9.5-9.6,16.4-19.2,16.4
		c-5,0.5-9.4-3.2-9.9-8.2c0-0.3,0-0.6,0-0.9c0-3.5,1.4-11.8,15-14.4C202.5,67.5,214.3,67.4,214.3,67.4z">
  </path>
  <path class="st1" d="M232.8,1.7v69.4c0,3.8,0.1,28.9,23.3,28.9c5.6,0,25.9-2,25.9-34.2s-17.8-35.6-23.2-35.6
		c-8.7,0-16.3,5.7-18.6,14.1h-0.2V1.7H232.8L232.8,1.7z M273.5,65.6c0,27-15.1,27.6-17.4,27.6c-2.3,0-15.9,0-15.9-26.5
		c0-22,10.6-29.9,17.8-29.9C265.3,36.8,273.5,44.3,273.5,65.6L273.5,65.6z">
  </path>
  <path class="st1" d="M292.8,1.7v69.4c0,3.8,0.1,28.9,23.3,28.9c5.6,0,25.9-2,25.9-34.2s-17.8-35.6-23.2-35.6
		c-8.7,0-16.3,5.7-18.6,14.1h-0.3V1.7H292.8L292.8,1.7z M333.5,65.6c0,27-15.1,27.6-17.4,27.6c-2.3,0-15.9,0-15.9-26.5
		c0-22,10.6-29.9,17.8-29.9C325.3,36.8,333.5,44.3,333.5,65.6L333.5,65.6z">
  </path>
  <path class="st1" d="M360.8,31.7v66.8h-7V31.7H360.8z">
  </path>
  <path class="st1" d="M362.4,1.7V13h-10.3V1.7H362.4z">
  </path>
  <path class="st1" d="M409.6,99.4c-2.4,0.3-4.7,0.5-7.1,0.6c-4.7,0.3-9.4-1.1-13.3-3.8c-2.9-2.4-4.4-6.7-4.4-12.6V38.4h-10.7v-6.7
		h10.7V16.2l7-4.7v20.1h17.8v6.7h-17.8v42.9c0,1.9-0.5,11.9,10.1,11.9c2.6,0,5.2-0.4,7.7-1.2V99.4L409.6,99.4L409.6,99.4z">
  </path>
  <path class="st1" d="M93.5,40H62.3c-2.1,0-3.9-1.7-3.9-3.9c0,0,0,0,0,0V5c0-2.1-1.7-3.9-3.9-3.9c0,0,0,0,0,0H42.8
		c-2.1,0-3.9,1.7-3.9,3.9c0,0,0,0,0,0v31.2c0,2.1-1.7,3.9-3.9,3.9c0,0,0,0,0,0H23.4c-2.1,0-3.9-1.7-3.9-3.9c0,0,0,0,0,0V5
		c0-2.1-1.7-3.9-3.9-3.9c0,0,0,0,0,0H3.9C1.7,1,0,2.8,0,4.9c0,0,0,0,0,0v89.6c0,2.1,1.7,3.9,3.9,3.9c0,0,0,0,0,0h89.6
		c2.1,0,3.9-1.7,3.9-3.9c0,0,0,0,0,0V44c0.1-2.1-1.6-3.9-3.8-4C93.6,40,93.5,40,93.5,40z M77.8,73.1c0,3.2-2.6,5.8-5.8,5.9
		c0,0,0,0,0,0h-7.8c-3.2,0-5.8-2.6-5.8-5.8c0,0,0,0,0,0v-7.8c0-3.2,2.6-5.8,5.8-5.9c0,0,0,0,0,0H72c3.2,0,5.8,2.6,5.8,5.8
		c0,0,0,0,0,0V73.1z">
  </path>
  <path class="st0" d="M571.3,91.9c9-7.7,13.7-22,13.7-42.6c0-30-11.3-49.3-32.5-49.3c-19.9,0-33.7,16.1-33.7,49.3
		s11.8,49.2,33.1,49.2h0.9l0,0h39v-8.1L571.3,91.9z M528,49.3c0-27.6,7.9-41,24.4-41c16.5,0,23.3,16,23.3,41s-6,41-23.7,41
		C534.3,90.3,528,76.9,528,49.3z">
  </path>
 </g>
</svg>