<svg version="1.1" id="Layer_1" xmlns:x="ns_extend;" xmlns:i="ns_ai;" xmlns:graph="ns_graphs;" xmlns="http://www.w3.org/2000/svg" xmlns:xlink="http://www.w3.org/1999/xlink" x="0px" y="0px" viewBox="0 0 97.4 97.4" style="enable-background:new 0 0 97.4 97.4;" xml:space="preserve">
 <style type="text/css">
  .st0{fill:#FF6600;}
 </style>
 <metadata>
  <sfw xmlns="ns_sfw;">
   <slices>
   </slices>
   <sliceSourceBounds bottomLeftOrigin="true" height="97.4" width="97.4" x="-185.3" y="-28">
   </sliceSourceBounds>
  </sfw>
 </metadata>
 <g>
  <path class="st0" d="M93.5,39H62.3c-2.1,0-3.9-1.7-3.9-3.9c0,0,0,0,0,0V3.9c0-2.1-1.7-3.9-3.9-3.9c0,0,0,0,0,0H42.8
		c-2.1,0-3.9,1.7-3.9,3.9c0,0,0,0,0,0v31.2c0,2.1-1.7,3.9-3.9,3.9c0,0,0,0,0,0H23.4c-2.1,0-3.9-1.7-3.9-3.9c0,0,0,0,0,0V3.9
		c0-2.1-1.7-3.9-3.9-3.9c0,0,0,0,0,0H3.9C1.7,0,0,1.7,0,3.9c0,0,0,0,0,0v89.6c0,2.1,1.7,3.9,3.9,3.9c0,0,0,0,0,0h89.6
		c2.1,0,3.9-1.7,3.9-3.9c0,0,0,0,0,0V42.9c0.1-2.1-1.6-3.9-3.8-4C93.6,39,93.5,39,93.5,39z M77.8,72c0,3.2-2.6,5.8-5.8,5.9
		c0,0,0,0,0,0h-7.8c-3.2,0-5.8-2.6-5.8-5.8c0,0,0,0,0,0v-7.8c0-3.2,2.6-5.8,5.8-5.9c0,0,0,0,0,0H72c3.2,0,5.8,2.6,5.8,5.8
		c0,0,0,0,0,0V72z">
  </path>
 </g>
</svg>