<svg height="854" viewBox="-6.22132441 -.0693837 441.74132441 153.01306075" width="2500" xmlns="http://www.w3.org/2000/svg"><g fill="#478aff"><path d="m73.5 40a33.5 33.5 0 1 0 33.5 33.5 33.54 33.54 0 0 0 -33.5-33.5z"/><circle cx="121.6" cy="27.71" r="15.26"/><path d="m140.39 43.05-.64-1.4-1 1.16a23 23 0 0 1 -9.21 6.34l-1 .36.4 1a60.09 60.09 0 1 1 -29.71-31.21l.94.45.41-1a23 23 0 0 1 6.78-8.89l1.2-1-1.37-.71a72.68 72.68 0 0 0 -33.7-8.19 73.51 73.51 0 1 0 66.89 43zm44.44-1.55h15.5v64h-15.5zm167.27 0h15.5v64h-15.5zm-35.79-1.5c-10.9 0-19.32 6.57-21.25 8.38l-1-6.88h-12.9v64h15.5v-38.75c0-7.56 10.32-13.82 17.87-13.82s13.22 7.22 13.22 15.82v36.75h15.5v-35.22c-.05-16.78-7.29-30.28-26.94-30.28zm91.98 53.87c-11.65 0-19.35-9.12-19.35-20.37s7.7-20.37 19.35-20.37c9.94 0 16 9.63 16 9.63l11.23-7.51c-3.25-5-7-8-12.12-11.1a28.62 28.62 0 0 0 -14.65-4.15c-19.39 0-34.2 14.56-34.29 33.5.09 18.94 14.9 33.5 34.29 33.5a28.62 28.62 0 0 0 14.59-4.15c5.12-3.09 8.87-6.1 12.12-11.1l-11.23-7.51s-6 9.63-15.94 9.63zm-167.54-53.87a33 33 0 0 0 -33.53 33.23c0 18.15 13.58 33.77 33.76 33.77 18.27 0 33.24-14 33.24-33.38 0-22.19-17.41-33.62-33.47-33.62zm.19 13.16c9.61 0 18.71 7.8 18.71 20.37 0 12.3-9.06 20.32-18.75 20.32-10.65 0-19-8.56-19-20.42 0-11.6 8.29-20.27 19.09-20.27z"/></g></svg>