<?xml version="1.0" encoding="utf-8"?>
<!-- Generator: Adobe Illustrator 26.3.1, SVG Export Plug-In . SVG Version: 6.00 Build 0)  -->
<svg version="1.1" id="Layer_1" xmlns="http://www.w3.org/2000/svg" xmlns:xlink="http://www.w3.org/1999/xlink" x="0px" y="0px"
	 width="500px" height="733.1px" viewBox="0 0 500 733.1" enable-background="new 0 0 500 733.1" xml:space="preserve">
<g>
	<g>
		<path fill="#40C4FF" d="M85.53,85.53v266.45c0,26.39,3.31,32.86,16.45,46.05L203.95,500h207.24v-88.82L85.53,85.53z"/>
		<path fill="#29B6F6" d="M85.53,351.97c0,26.39,3.31,32.86,16.45,46.05l13.16,13.16h296.05L85.53,85.53V351.97z"/>
		<path fill="#01579B" d="M85.53,85.53L6.58,250C3.76,255.98,0,266.38,0,273.03c0,14.36,6.32,29.06,16.45,39.47l85.53,85.53
			c-13.14-13.19-16.45-19.67-16.45-46.05V85.53z"/>
		<path fill="#55C5F8" d="M105.26,401.32c-13.14-13.19-16.45-19.67-16.45-46.05V88.82l-3.29-3.29v266.45
			c0,26.39,3.31,32.86,16.45,46.05l13.16,13.16h0L105.26,401.32z"/>
		<path fill="#01579B" d="M348.68,85.53H85.53l325.66,325.66H500V207.24L394.74,101.97C379.95,87.13,366.82,85.53,348.68,85.53z"/>
		<path fill="#40C4FF" d="M394.74,101.97l-85.53-85.53C301.74,8.95,286.18,0,273.03,0c-11.31,0-22.41,2.26-29.6,6.58L85.53,85.53
			h263.16C366.82,85.53,379.95,87.13,394.74,101.97z"/>
		<polygon fill="#075087" points="496.71,203.95 496.71,407.89 407.89,407.89 411.18,411.18 500,411.18 500,207.24 		"/>
		<path fill="#3379AE" d="M394.74,101.97c-16.31-16.31-29.68-16.45-49.34-16.45H85.53l3.29,3.29h256.58
			C355.22,88.82,379.99,87.17,394.74,101.97L394.74,101.97z"/>
	</g>
	<g>
		<path fill="#FFFFFF" d="M101.04,595.72h40.54c13.76,0,25.77,2.85,36.04,8.54c10.26,5.7,18.14,13.61,23.65,23.74
			c5.5,10.13,8.26,21.77,8.26,34.91s-2.75,24.77-8.26,34.91c-5.51,10.13-13.39,18.05-23.65,23.74c-10.26,5.7-22.27,8.54-36.04,8.54
			h-40.54V595.72z M141.58,714.9c15.89,0,28.5-4.57,37.82-13.7c9.32-9.13,13.98-21.89,13.98-38.29c0-16.39-4.66-29.15-13.98-38.29
			c-9.32-9.13-21.93-13.7-37.82-13.7h-24.77V714.9H141.58z"/>
		<path fill="#FFFFFF" d="M234.11,728.97c-5.51-2.75-9.76-6.54-12.76-11.35c-3-4.82-4.5-10.29-4.5-16.42
			c0-10.13,3.82-18.05,11.45-23.74c7.63-5.69,17.27-8.54,28.9-8.54c5.75,0,11.1,0.63,16.05,1.88c4.94,1.25,8.73,2.69,11.35,4.32
			v-5.82c0-7.13-2.5-12.86-7.51-17.17c-5.01-4.32-11.33-6.48-18.96-6.48c-5.38,0-10.32,1.16-14.83,3.47
			c-4.5,2.32-8.07,5.54-10.7,9.67l-12.01-9.01c3.75-5.75,8.91-10.26,15.48-13.51c6.57-3.25,13.86-4.88,21.87-4.88
			c13.01,0,23.24,3.41,30.69,10.23c7.44,6.82,11.17,16.11,11.17,27.87v60.62h-15.2v-13.7h-0.75c-2.75,4.63-6.88,8.57-12.39,11.82
			c-5.51,3.25-11.7,4.88-18.58,4.88C245.87,733.1,239.61,731.72,234.11,728.97z M269.39,714.9c4.63-2.75,8.32-6.44,11.07-11.07
			c2.75-4.63,4.13-9.7,4.13-15.2c-3-2-6.7-3.63-11.07-4.88c-4.38-1.25-9.01-1.88-13.89-1.88c-8.76,0-15.36,1.82-19.8,5.44
			c-4.44,3.63-6.66,8.32-6.66,14.08c0,5.26,2,9.51,6.01,12.76c4,3.26,9.07,4.88,15.2,4.88C259.75,719.03,264.76,717.65,269.39,714.9
			z"/>
		<path fill="#FFFFFF" d="M316.63,634.66h15.2v15.2h0.75c2.25-5.63,6.07-10.01,11.45-13.14c5.38-3.13,11.26-4.69,17.64-4.69
			c2.75,0,5.07,0.19,6.94,0.56v16.33c-2.13-0.5-5.01-0.75-8.63-0.75c-8.13,0-14.73,2.69-19.8,8.07c-5.07,5.38-7.6,12.39-7.6,21.02
			v53.11h-15.95V634.66z"/>
		<path fill="#FFFFFF" d="M411.14,729.97c-3.32-1.27-6.1-2.99-8.35-5.16c-2.5-2.42-4.38-5.22-5.63-8.41
			c-1.25-3.18-1.88-7.07-1.88-11.66v-57.13h-16.7v-14.45h16.7v-27.03h15.95v27.03h23.27v14.45h-23.27v53.33c0,5.37,1,9.34,3,11.89
			c2.38,2.82,5.82,4.22,10.32,4.22c3.63,0,7.13-1.06,10.51-3.19v15.58c-1.88,0.87-3.79,1.5-5.72,1.88
			c-1.94,0.38-4.41,0.56-7.41,0.56C418.05,731.88,414.45,731.24,411.14,729.97z"/>
	</g>
</g>
</svg>
