<svg version="1.1" id="Layer_1" xmlns:x="ns_extend;" xmlns:i="ns_ai;" xmlns:graph="ns_graphs;" xmlns="http://www.w3.org/2000/svg" xmlns:xlink="http://www.w3.org/1999/xlink" x="0px" y="0px" viewBox="0 0 253.2 67.4" style="enable-background:new 0 0 253.2 67.4;" xml:space="preserve">
 <style type="text/css">
  .st0{fill:#FFFFFF;}
 </style>
 <metadata>
  <sfw xmlns="ns_sfw;">
   <slices>
   </slices>
   <sliceSourceBounds bottomLeftOrigin="true" height="67.4" width="253.2" x="77.1" y="-197.7">
   </sliceSourceBounds>
  </sfw>
 </metadata>
 <g>
  <g>
   <g>
    <g>
     <path d="M33.7,0c18.6,0,33.7,15.1,33.7,33.7c0,18.6-15.1,33.7-33.7,33.7C15.1,67.4,0,52.3,0,33.7C0,15.1,15.1,0,33.7,0z">
     </path>
     <path class="st0" d="M33,50.2c-0.9-0.2-1.8,0.3-2,1.1l0,0l-2.2,8.3l0,0c-0.2,0.9,0.3,1.7,1.2,2c0.9,0.2,1.8-0.3,2-1.1l0,0
					l2.2-8.3l0,0c0-0.1,0-0.1,0-0.2l0-0.1l-0.1-0.3L34,51.3l0-0.2c-0.1-0.2-0.3-0.4-0.4-0.5C33.4,50.4,33.2,50.3,33,50.2z
					 M17.4,41.7c0,0.1-0.1,0.2-0.1,0.3l0,0.1L15,50.3l0,0c-0.2,0.9,0.3,1.7,1.2,2c0.9,0.2,1.8-0.3,2-1.1l0,0l2-7.5
					C19.1,43,18.2,42.4,17.4,41.7z M12,32.1c-0.9-0.2-1.8,0.3-2,1.1l0,0l-2.2,8.3l0,0c-0.2,0.9,0.3,1.7,1.2,2c0.9,0.2,1.8-0.3,2-1.1
					l0,0l2.2-8.3l0,0C13.4,33.2,12.9,32.4,12,32.1z M62.2,30.2c-0.9-0.2-1.8,0.3-2,1.1l0,0L58,39.7l0,0c-0.2,0.9,0.3,1.7,1.2,2
					c0.9,0.2,1.8-0.3,2-1.1l0,0l2.2-8.3l0,0C63.6,31.4,63.1,30.5,62.2,30.2z M7.1,19.2c-1.9,3.4-3.1,7.2-3.5,11
					c0.2,0.2,0.5,0.4,0.8,0.5c0.9,0.2,1.8-0.3,2-1.1l0,0l2.2-8.3l0,0c0.2-0.9-0.3-1.7-1.2-2C7.4,19.2,7.3,19.2,7.1,19.2z M56.5,19.2
					c-0.9-0.2-1.8,0.3-2,1.1l0,0l-2.2,8.3l0,0c-0.2,0.9,0.3,1.7,1.2,2c0.9,0.2,1.8-0.3,2-1.1l0,0l2.2-8.3l0,0
					C57.9,20.3,57.4,19.4,56.5,19.2z">
     </path>
     <path class="st0" d="M16.9,11.3c-0.9-0.2-1.8,0.3-2,1.1l0,0l-2.2,8.3l0,0c-0.2,0.9,0.3,1.7,1.2,2c0.9,0.2,1.8-0.3,2-1.1l0,0
					l2.2-8.3l0,0C18.3,12.4,17.7,11.6,16.9,11.3z M45.6,12.9c-0.9-0.2-1.8,0.3-2,1.1l0,0l-1.5,5.6c1,0.5,1.9,1,2.8,1.7l0.1,0.1
					l1.8-6.5l0,0C47,14,46.5,13.1,45.6,12.9z M31,3.5c-1,0.1-2.1,0.2-3.1,0.4l-0.2,0l-2.1,7.7l0,0c-0.2,0.9,0.3,1.7,1.2,2
					c0.9,0.2,1.8-0.3,2-1.1l0,0L31,4.3l0,0C31.1,4,31.1,3.8,31,3.5z M51.6,9.3l-0.4,1.6l0,0c-0.2,0.9,0.3,1.7,1.2,2
					c0.9,0.2,1.8-0.3,2-1.1l0,0l0-0.2c-0.8-0.8-1.7-1.5-2.6-2.2L51.6,9.3z M38.6,3.8l-0.8,2.9l0,0c-0.2,0.9,0.3,1.7,1.2,2
					c0.9,0.2,1.8-0.3,2-1.1l0,0l0.8-3.1c-1-0.3-2-0.5-3-0.7L38.6,3.8z">
     </path>
     <path class="st0" d="M21.8,55.3c0.3-0.9,1.1-1.4,2-1.1c0.9,0.2,1.4,1.1,1.2,2l0,0l-1.6,5.9l-0.2-0.1c-1-0.4-1.9-0.8-2.8-1.2
					L21.8,55.3L21.8,55.3z">
     </path>
     <path class="st0" d="M32.4,19.1c-9.8,0-17.4,6.2-17.4,13.8c0,7.2,7,11.9,17.9,11.6c0.9,0,1.2,0.6,1.5,1.4
					c0.3,0.8,1.1,5.3,1.8,8.6c0.6,3,1.2,6.1,1.6,9.1c7.1-0.9,13.7-4.4,18.5-9.7l-5.1-19.1c-1.3-4.6-2.8-8.9-6.7-12
					C41.2,20.4,37.1,19.1,32.4,19.1z">
     </path>
     <path d="M34.5,24.6c1.2,0,2.1,0.9,2.1,2.1s-0.9,2.1-2.1,2.1c-1.2,0-2.1-0.9-2.1-2.1S33.3,24.6,34.5,24.6z">
     </path>
    </g>
   </g>
  </g>
  <g>
   <path class="st0" d="M94.4,53V13.4h19.4c4.6,0,8.5,0.7,11.7,2.2c3.3,1.5,5.7,3.7,7.5,6.6c1.7,2.9,2.6,6.6,2.6,11s-0.9,8-2.6,11
			c-1.7,2.9-4.2,5.2-7.5,6.6c-3.3,1.5-7.2,2.2-11.7,2.2H94.4z M105.4,44.5h7.9c1.7,0,3.2-0.2,4.6-0.7c1.3-0.5,2.5-1.1,3.4-2
			c0.9-0.9,1.7-2,2.1-3.3c0.5-1.3,0.7-2.8,0.7-4.4v-1.9c0-1.7-0.2-3.2-0.7-4.5c-0.5-1.3-1.2-2.4-2.1-3.3c-0.9-0.9-2.1-1.6-3.4-2.1
			c-1.3-0.5-2.9-0.7-4.6-0.7h-7.9V44.5z">
   </path>
   <path class="st0" d="M157.7,53.6c-3.8,0-7.1-0.6-9.8-1.7c-2.8-1.1-4.9-2.9-6.3-5.2c-1.5-2.3-2.2-5.3-2.2-9c0-3.6,0.7-6.5,2.2-8.9
			c1.5-2.3,3.5-4.1,6.2-5.2c2.7-1.2,5.9-1.7,9.6-1.7s7,0.6,9.6,1.7c2.6,1.1,4.7,2.8,6,5.1c1.4,2.3,2.1,5.2,2.1,8.8v2.2h-25.4
			c0.1,1.6,0.4,3,1,4c0.6,1.1,1.5,1.9,2.7,2.4c1.2,0.5,2.7,0.8,4.4,0.8c1,0,1.9-0.1,2.8-0.3c0.8-0.2,1.6-0.6,2.2-1
			c0.7-0.4,1.2-0.9,1.5-1.5c0.4-0.6,0.6-1.2,0.6-2h10c0,1.8-0.4,3.4-1.2,4.8c-0.8,1.4-2,2.6-3.5,3.6c-1.5,1-3.3,1.7-5.4,2.2
			C162.7,53.4,160.3,53.6,157.7,53.6L157.7,53.6z M149.7,34.3h14.8c0-1-0.2-1.8-0.5-2.5c-0.3-0.7-0.8-1.3-1.4-1.8
			c-0.6-0.5-1.3-0.9-2.2-1.1c-0.9-0.2-1.8-0.4-2.8-0.4c-1.6,0-3,0.2-4.1,0.7c-1.1,0.5-2,1.1-2.6,2C150.3,32.1,149.9,33.1,149.7,34.3
			L149.7,34.3z">
   </path>
   <path class="st0" d="M180,53V22.6h8.2l0.7,4.7h0.5c0.9-1.2,2-2.2,3.2-3c1.2-0.8,2.5-1.4,4-1.8c1.4-0.4,2.9-0.6,4.4-0.6
			c2.6,0,4.7,0.4,6.5,1.3c1.7,0.9,3.1,2.2,4,3.9c0.9,1.7,1.4,4,1.4,6.7V53h-10.1V35.2c0-0.9-0.1-1.7-0.4-2.4
			c-0.2-0.7-0.6-1.3-1.1-1.8c-0.5-0.5-1-0.8-1.8-1c-0.7-0.2-1.5-0.3-2.4-0.3c-1.3,0-2.5,0.3-3.5,0.9c-1.1,0.6-1.9,1.4-2.5,2.3
			c-0.6,1-0.9,2.1-0.9,3.4v16.8L180,53L180,53z">
   </path>
   <path class="st0" d="M235.1,53.6c-3.7,0-6.9-0.6-9.6-1.8s-4.8-2.9-6.3-5.3c-1.5-2.3-2.2-5.3-2.2-8.9c0-3.6,0.7-6.5,2.2-8.9
			c1.5-2.3,3.5-4.1,6.3-5.2c2.7-1.2,5.9-1.7,9.6-1.7c3.7,0,6.9,0.6,9.6,1.7c2.7,1.2,4.8,2.9,6.3,5.2c1.5,2.3,2.2,5.3,2.2,8.9
			c0,3.6-0.7,6.5-2.2,8.9c-1.5,2.3-3.5,4.1-6.3,5.3C242.1,53.1,238.8,53.6,235.1,53.6z M235.1,46.6c1.8,0,3.2-0.3,4.4-1
			c1.2-0.7,2-1.6,2.6-2.8c0.6-1.2,0.8-2.6,0.8-4.3v-1.7c0-1.7-0.3-3.1-0.8-4.3c-0.6-1.2-1.4-2.1-2.6-2.8c-1.2-0.6-2.6-1-4.4-1
			c-1.8,0-3.3,0.3-4.4,1c-1.2,0.6-2,1.6-2.6,2.8c-0.6,1.2-0.8,2.6-0.8,4.3v1.7c0,1.7,0.3,3.1,0.8,4.3c0.6,1.2,1.4,2.1,2.6,2.8
			C231.8,46.3,233.3,46.6,235.1,46.6z">
   </path>
  </g>
 </g>
</svg>