<svg version="1.1" id="Layer_1" xmlns:x="ns_extend;" xmlns:i="ns_ai;" xmlns:graph="ns_graphs;" xmlns="http://www.w3.org/2000/svg" xmlns:xlink="http://www.w3.org/1999/xlink" x="0px" y="0px" viewBox="0 0 322 77" style="enable-background:new 0 0 322 77;" xml:space="preserve">
 <style type="text/css">
  .st0{fill-rule:evenodd;clip-rule:evenodd;fill:#FFFFFF;}
	.st1{filter:url(#Adobe_OpacityMaskFilter);}
	.st2{mask:url(#b_1_);fill-rule:evenodd;clip-rule:evenodd;fill:#FFFFFF;}
	.st3{fill-rule:evenodd;clip-rule:evenodd;fill:#74BB11;}
	.st4{fill-rule:evenodd;clip-rule:evenodd;fill:#009CD9;}
	.st5{fill-rule:evenodd;clip-rule:evenodd;fill:#EB2084;}
	.st6{filter:url(#Adobe_OpacityMaskFilter_1_);}
	.st7{mask:url(#d_1_);fill-rule:evenodd;clip-rule:evenodd;fill:#FFFFFF;}
 </style>
 <metadata>
  <sfw xmlns="ns_sfw;">
   <slices>
   </slices>
   <sliceSourceBounds bottomLeftOrigin="true" height="77" width="322" x="-205" y="1">
   </sliceSourceBounds>
  </sfw>
 </metadata>
 <g>
  <path class="st0" d="M199.8,1h-4.6c-2.3,0-4,1.6-4,4v60.2h-19c-11.8,0-16.5-0.7-16.5-19.5V4.9c0-2.3-1.6-4-4-4h-4.4
		c-2.3,0-4.1,1.7-4.1,4v40.7c0,26.7,9.7,31.4,29.9,31.4c7.3,0,17.3,0,26.8-1.3l0.2,0c2.4-0.6,3.6-1.9,3.6-4V4.9
		C203.8,2.6,202.2,1,199.8,1 M254.7,1.1L254.4,1c-2.7-0.6-10-1-13.6-1c-12.8,0-19.6,5.4-19.6,15.6v56.8c0,2.3,1.6,4,4,4h4.6
		c2.3,0,4-1.6,4-4V16.7c0-2.5,0.6-4.8,8.3-4.8l11.3,0c1.1,0.1,2.2-0.2,3-0.9c0.9-0.8,1.4-1.9,1.4-3.1V5.1
		C257.6,3.2,256.5,1.7,254.7,1.1">
  </path>
  <g transform="translate(95.309 .015)">
   <defs>
    <filter id="Adobe_OpacityMaskFilter" filterUnits="userSpaceOnUse" x="167" y="0" width="59.6" height="77">
     <feColorMatrix type="matrix" values="1 0 0 0 0  0 1 0 0 0  0 0 1 0 0  0 0 0 1 0">
     </feColorMatrix>
    </filter>
   </defs>
   <mask maskUnits="userSpaceOnUse" x="167" y="0" width="59.6" height="77" id="b_1_">
    <g class="st1">
     <path id="a_1_" class="st0" d="M167,0h59.6v77H167V0z">
     </path>
    </g>
   </mask>
   <path class="st2" d="M197.2,0c-13.2,0-20.6,2.5-24.9,8.5c-4.5,6.2-5.3,16.1-5.3,29.9c0,27.2,4.2,38.5,30.2,38.5
			c3.1,0,13.8-0.1,20-0.8c2.4-0.4,3.5-2.3,3.5-3.9v-3c0-2.3-1.8-4.1-4.1-4.1h-19.4c-14.7,0-17.3-3.5-17.7-23.2v-6.4
			c0.1-20.2,2.8-23.7,17.7-23.7c13.8,0,16.4,3.1,16.9,20.9h-21.9v12H221c5.7,0,5.7-4,5.7-5.3v-3.8C226.2,8,219.6,0,197.2,0">
   </path>
  </g>
  <path class="st3" d="M129.2,2.8c-0.6-1.2-1.8-2-3.4-2h-5.9c-1.7,0-3,0.7-3.6,1.9l-8.7,12.7l7.6,10.4l13.3-19.1
		C130,5,129.4,3.4,129.2,2.8">
  </path>
  <path class="st4" d="M83.3,2.6L83.3,2.6c-1.3-1.8-3.1-1.8-3.7-1.8h-5.7c-1.5,0-2.7,0.7-3.3,1.9c-0.6,1.2-0.5,2.7,0.4,4l21.3,29.6
		L67.7,70.4c-0.9,1.3-1,2.7-0.3,3.9c0.6,1.2,1.8,1.9,3.3,1.9h5.9c1.5,0,2.8-0.8,3.5-2l27.4-37.8L83.3,2.6z">
  </path>
  <path class="st5" d="M132.1,71.5l-14.8-20.4l-6.5,9l11.7,15.7l0.3,0.1c0.5,0.2,1,0.3,1.5,0.3h5c1.2,0,2.2-0.5,2.8-1.5
		C132.7,73.8,132.7,72.6,132.1,71.5">
  </path>
  <g>
   <defs>
    <filter id="Adobe_OpacityMaskFilter_1_" filterUnits="userSpaceOnUse" x="0" y="0" width="57.7" height="77">
     <feColorMatrix type="matrix" values="1 0 0 0 0  0 1 0 0 0  0 0 1 0 0  0 0 0 1 0">
     </feColorMatrix>
    </filter>
   </defs>
   <mask maskUnits="userSpaceOnUse" x="0" y="0" width="57.7" height="77" id="d_1_">
    <g class="st6">
     <path id="c_1_" class="st0" d="M0,0h57.7v77H0V0z">
     </path>
    </g>
   </mask>
   <path class="st7" d="M45.2,44.2v19.9c-5.8,0.9-14.7,1.1-17.7,1.1c-13.4,0-14.8-3.7-14.8-11.4c0-7.3,2.7-9.6,11.2-9.6H45.2z
			 M26.8,0C22.7,0,17.1,0.1,10,1L9.7,1C7.7,1.6,6.7,3,6.7,5v2.9c0,2.4,1.5,4,4,4h16.2c13,0,18.3,3.5,18.3,12.2v8.4H23.8
			C7.1,32.5,0,38.9,0,53.8C0,70.5,7.4,77,26.3,77c7.7,0,21.8-0.6,27-2.2c4.4-1.2,4.4-4.6,4.4-5.7V23.3C57.7,7.6,47.6,0,26.8,0
			L26.8,0z">
   </path>
  </g>
 </g>
</svg>