<svg version="1.1" id="Layer_1" xmlns:x="ns_extend;" xmlns:i="ns_ai;" xmlns:graph="ns_graphs;" xmlns="http://www.w3.org/2000/svg" xmlns:xlink="http://www.w3.org/1999/xlink" x="0px" y="0px" viewBox="0 0 65.6 75.4" style="enable-background:new 0 0 65.6 75.4;" xml:space="preserve">
 <style type="text/css">
  .st0{fill-rule:evenodd;clip-rule:evenodd;fill:#74BB11;}
	.st1{fill-rule:evenodd;clip-rule:evenodd;fill:#009CD9;}
	.st2{fill-rule:evenodd;clip-rule:evenodd;fill:#EB2084;}
 </style>
 <metadata>
  <sfw xmlns="ns_sfw;">
   <slices>
   </slices>
   <sliceSourceBounds bottomLeftOrigin="true" height="75.4" width="65.6" x="-138" y="92.1">
   </sliceSourceBounds>
  </sfw>
 </metadata>
 <g>
  <path class="st0" d="M62.2,2c-0.6-1.2-1.8-2-3.4-2h-5.9c-1.7,0-3,0.7-3.6,1.9l-8.7,12.7l7.6,10.4L61.5,6C63,4.2,62.4,2.6,62.2,2">
  </path>
  <path class="st1" d="M16.3,1.8L16.3,1.8C14.9,0,13.2,0,12.6,0H6.9C5.4,0,4.2,0.7,3.5,1.9C2.9,3.1,3,4.5,3.9,5.9l21.3,29.6L0.7,69.6
		c-0.9,1.3-1,2.7-0.3,3.9c0.6,1.2,1.8,1.9,3.3,1.9h5.9c1.5,0,2.8-0.8,3.5-2l27.4-37.8L16.3,1.8z">
  </path>
  <path class="st2" d="M65.1,70.6L50.3,50.3l-6.5,9l11.7,15.7l0.3,0.1c0.5,0.2,1,0.3,1.5,0.3h5c1.2,0,2.2-0.5,2.8-1.5
		C65.7,73,65.7,71.8,65.1,70.6">
  </path>
 </g>
</svg>