<svg version="1.1" id="Layer_1" xmlns:x="ns_extend;" xmlns:i="ns_ai;" xmlns:graph="ns_graphs;" xmlns="http://www.w3.org/2000/svg" xmlns:xlink="http://www.w3.org/1999/xlink" x="0px" y="0px" viewBox="0 0 461.6 60" style="enable-background:new 0 0 461.6 60;" xml:space="preserve">
 <style type="text/css">
  .st0{fill:#C74634;}
 </style>
 <metadata>
  <sfw xmlns="ns_sfw;">
   <slices>
   </slices>
   <sliceSourceBounds bottomLeftOrigin="true" height="60" width="461.6" x="-30.4" y="-230.5">
   </sliceSourceBounds>
  </sfw>
 </metadata>
 <path class="st0" d="M199.7,39h30.4l-16.1-26l-29.6,46.9h-13.4l36-56.3c2.7-3.9,8.1-4.8,11.9-2.1c0.8,0.6,1.5,1.2,2.1,2l36.1,56.4
	h-13.4l-6.3-10.5h-30.8L199.7,39 M339.5,49.5V0.6h-11.4v53.7c0,1.5,0.6,3,1.7,4c1.1,1.1,2.6,1.7,4.2,1.7h51.9l6.8-10.5L339.5,49.5
	 M150.6,40.7c11.1,0,20.1-9,20.1-20.1s-9-20.1-20.1-20.1h-49.9v59.4H112V11.1h37.8c5.3,0,9.6,4.3,9.6,9.6s-4.3,9.6-9.6,9.6h-32.2
	l34.1,29.6h16.6l-22.9-19.2H150.6 M30.5,59.9H65c16.4-0.4,29.3-14.1,28.9-30.4C93.5,13.7,80.7,1,65,0.6H30.5
	C14.1,0.2,0.4,13.1,0,29.5s12.5,30,28.9,30.4C29.4,60,29.9,60,30.5,59.9 M64.2,49.5h-33c-10.6-0.3-18.9-9.2-18.6-19.8
	c0.3-10.1,8.5-18.3,18.6-18.6h33c10.6-0.3,19.5,8,19.8,18.6c0.3,10.6-8,19.5-18.6,19.8C65,49.5,64.6,49.5,64.2,49.5 M280.9,59.9
	h35.2l6.7-10.4h-41.1c-10.6,0.3-19.5-8-19.8-18.6c-0.3-10.6,8-19.5,18.6-19.8c0.4,0,0.8,0,1.2,0h33.5l6.8-10.5h-41
	c-16.4-0.4-30,12.5-30.4,28.9c-0.4,16.4,12.5,30,28.9,30.4C279.9,60,280.4,60,280.9,59.9 M420.5,49.5c-8.6,0-16.2-5.7-18.5-14h48.8
	l6.7-10.5H402c2.3-8.3,9.9-14,18.5-14H454l6.7-10.5h-41C403.3,1,390.4,14.6,390.8,31c0.4,15.8,13.1,28.5,28.9,28.9h35.2l6.7-10.4
	L420.5,49.5">
 </path>
</svg>