<?xml version="1.0" encoding="utf-8"?>
<!-- Generator: Adobe Illustrator 27.8.0, SVG Export Plug-In . SVG Version: 6.00 Build 0)  -->
<svg version="1.1" id="Layer_1" xmlns="http://www.w3.org/2000/svg" xmlns:xlink="http://www.w3.org/1999/xlink" x="0px" y="0px"
	 viewBox="0 0 1176 240" style="enable-background:new 0 0 1176 240;" xml:space="preserve">
<style type="text/css">
	.st0{fill-rule:evenodd;clip-rule:evenodd;fill:#0C0020;}
</style>
<g>
	<path class="st0" d="M0.4,151l50.1,29c0.5,0.3,0.8,0.8,0.8,1.4v57.9c0,0.6,0.7,1,1.2,0.7l50.1-29c0.5-0.3,0.8-0.8,0.8-1.4v-58.4
		c0-0.6-0.3-1.1-0.8-1.4l-51.3-29.6L0.4,149.6C-0.1,149.9-0.1,150.6,0.4,151z"/>
	<path class="st0" d="M102.7,29.4L52.1,0.2c-0.5-0.3-1.1-0.3-1.6,0L0.4,29.2c-0.5,0.3-0.5,1.1,0,1.4l50.1,29
		c0.5,0.3,0.8,0.8,0.8,1.4v59.3l52.1-30.1V30.8C103.5,30.2,103.2,29.7,102.7,29.4z"/>
	<path class="st0" d="M207,89.6l-50.5-29.2c-0.5-0.3-1.1-0.3-1.6,0l-51.3,29.6l51.3,29.7c0.5,0.3,0.8,0.8,0.8,1.4V179
		c0,0.6,0.7,1,1.2,0.7l50.1-29c0.5-0.3,0.8-0.8,0.8-1.4V91C207.8,90.4,207.5,89.9,207,89.6z"/>
	<path class="st0" d="M370.1,38.5h-66.5v166.9h66.5c22.8,0,42.1-8.1,57.4-24.1c15.3-16,23.1-36,23.1-59.3c0-23.5-7.8-43.5-23.1-59.4
		C412.2,46.5,392.9,38.5,370.1,38.5z M404.3,158.4c-8.8,9.3-20.3,13.9-34.2,13.9H338V71.5h32.1c13.9,0,25.4,4.7,34.2,13.9
		c8.8,9.4,13.2,21.5,13.2,36.5C417.5,136.9,413.1,149.1,404.3,158.4z"/>
	<path class="st0" d="M524.8,82.3c-17.6,0-32.7,6.1-44.9,18.3c-12.2,12.2-18.3,27.3-18.3,44.8c0,17.6,6.1,32.7,18.3,44.9
		c12.2,12.2,27.3,18.3,44.9,18.3c17.6,0,32.7-6.1,45-18.3c12.2-12.2,18.4-27.3,18.4-44.9c0-17.5-6.2-32.6-18.4-44.8
		C557.6,88.4,542.5,82.3,524.8,82.3z M547,168.1c-5.8,5.9-13.4,8.9-22.1,8.9c-8.8,0-16.3-2.9-22-8.9c-5.8-5.9-8.9-13.5-8.9-22.7
		c0-9.1,3-16.7,8.9-22.6c5.8-5.9,13.3-8.9,22-8.9c8.8,0,16.3,2.9,22.1,8.9c5.9,5.9,9,13.5,9,22.6C555.9,154.6,552.9,162.2,547,168.1
		z"/>
	<polygon class="st0" points="650.8,166.1 622.9,85.6 587.3,85.6 632.8,205.3 668.8,205.3 714.4,85.6 678.8,85.6 	"/>
	<path class="st0" d="M779.5,82.3c-18.4,0-33.7,6-45.5,18c-11.8,12.1-17.7,27.2-17.7,45.1c0,18.1,6,33.3,17.9,45.3
		c12,11.9,28,17.9,47.7,17.9c22.9,0,40.4-8.6,52.1-25.6l0.7-0.9l-26.2-15.1l-0.5,0.7c-5.8,7.6-14.4,11.4-25.6,11.4
		c-17.3,0-27.8-6.6-32-20.2h88.4l0.2-0.9c0.8-4.4,1.2-8.7,1.2-12.7c0-17.7-5.8-32.8-17.2-44.9C811.6,88.4,797,82.3,779.5,82.3z
		 M749.8,133.4c1.9-6.7,5.2-12.1,10-15.9c5.2-4,11.8-6,19.7-6c6.6,0,12.7,1.9,17.9,5.7c4.9,3.6,8.3,9,10,16.2H749.8z"/>
	<path class="st0" d="M898.2,52.2h-32.4v33.4h-20.6v31.2h20.6v48c0,16.5,4.4,28.1,13.3,34.5c6.3,4.7,16.1,7,29,7
		c4.8,0,10.1-0.3,15.8-1l0.9-0.1v-29.4h-1c-3.3,0.2-6.3,0.3-9.1,0.3c-1.9,0-3.8,0-5.5-0.1c-3.7-0.3-6.5-1.3-8.4-3
		c-1.9-1.7-2.7-4.4-2.7-8.2v-48h26.6V85.6h-26.6V52.2z"/>
	<path class="st0" d="M1028,97.8c-9.2-10.3-21.7-15.5-37.4-15.5c-15.9,0-29.8,6.1-41.1,18.3c-11.4,12.2-17.2,27.3-17.2,44.8
		c0,17.6,5.8,32.7,17.2,44.9c11.3,12.2,25.1,18.3,41.1,18.3c15.7,0,28.3-5.2,37.4-15.5v12.2h32.4V85.6H1028V97.8z M1019,168.7
		c-6,5.9-13.6,9.1-22.8,9.1c-9.2,0-16.8-3.1-22.6-9.1c-5.9-5.9-9-13.8-9-23.3c0-9.4,3-17.2,9-23.2c5.8-6,13.5-9.1,22.6-9.1
		c9.1,0,16.8,3,22.8,9.1c5.9,6,9,13.8,9,23.2C1028,154.9,1025,162.8,1019,168.7z"/>
	<path class="st0" d="M1101.8,34c-5.3,0-9.8,1.9-13.7,5.9c-3.9,3.9-5.9,8.6-5.9,13.8c0,5.4,2,9.9,5.9,13.8c3.9,3.8,8.5,5.7,13.7,5.7
		c5.5,0,10.1-1.9,14-5.7c3.9-3.9,5.9-8.6,5.9-13.8c0-5.3-2-9.9-5.9-13.8C1111.9,35.9,1107.2,34,1101.8,34z"/>
	<rect x="1085.7" y="85.6" class="st0" width="32.5" height="119.7"/>
	<rect x="1143.4" y="31.3" class="st0" width="32.4" height="174"/>
</g>
</svg>
