<svg version="1.1" id="Layer_1" xmlns="http://www.w3.org/2000/svg" xmlns:xlink="http://www.w3.org/1999/xlink" x="0px" y="0px" viewBox="0 0 185.8 48" style="enable-background:new 0 0 185.8 48;" xml:space="preserve">
 <style type="text/css">
  .st0{clip-path:url(#SVGID_2_);}
	.st1{fill:#FFFFFF;}
	.st2{fill:#FF3C00;}
 </style>
 <g>
  <defs>
   <rect id="SVGID_1_" y="0" width="185.8" height="48">
   </rect>
  </defs>
  <clipPath id="SVGID_2_">
   <use href="#SVGID_1_" style="overflow:visible;">
   </use>
  </clipPath>
  <g class="st0">
   <path class="st1" d="M48.6,36.4V0.1h5.6v14.3c1.8-2.6,4.4-4,8-4c3,0,5.4,0.9,7,2.7c1.7,1.8,2.5,4.3,2.5,7.5v15.8h-5.6v-15
			c0-4.1-1.8-6.2-5.5-6.2c-1.8,0-3.4,0.6-4.5,1.7c-1.2,1.1-1.8,2.7-1.8,4.7v14.8L48.6,36.4z">
   </path>
   <path class="st1" d="M98.5,33.3C96,35.8,92.8,37,89,37c-3.8,0-7-1.3-9.5-3.8c-2.5-2.5-3.8-5.7-3.8-9.6c0-3.9,1.3-7.1,3.8-9.5
			c2.5-2.5,5.7-3.7,9.5-3.7c3.8,0,7,1.2,9.5,3.7c2.5,2.5,3.8,5.7,3.8,9.5C102.2,27.6,101,30.7,98.5,33.3z M83.6,30.1
			c1.3,1.6,3.1,2.4,5.4,2.4c2.2,0,4-0.8,5.4-2.4c1.3-1.6,2-3.7,2-6.4c0-2.6-0.7-4.8-2-6.3C93,15.8,91.2,15,89,15
			c-2.2,0-4,0.8-5.4,2.3c-1.3,1.6-2,3.7-2,6.4C81.6,26.4,82.3,28.5,83.6,30.1z">
   </path>
   <path class="st1" d="M115.3,37c-5.2,0-7.8-2.8-7.8-8.4V15.8h-3.9V11h4.1l1.3-7.5h4.2V11h10.1v4.8h-10.1v12.7
			c0,2.3,0.9,3.5,2.6,3.5c1.6,0,3-1.5,4.3-4.4l4.4,2.2C122.3,34.6,119.3,37,115.3,37z">
   </path>
   <path class="st1" d="M126.3,48c-2.5,0-4.6-0.7-6.2-2.1l2.1-4.4c1,1.2,2.1,1.8,3.3,1.8c1.6,0,2.4-1,2.4-3V11h5.6v29.3
			c0,2.7-0.7,4.7-2,5.9C130.1,47.4,128.4,48,126.3,48z M130.7,6.7c-0.9,0-1.8-0.3-2.5-0.9c-0.3-0.3-0.6-0.7-0.8-1.1
			c-0.2-0.4-0.3-0.9-0.2-1.3c0-0.5,0.1-0.9,0.2-1.3c0.2-0.4,0.4-0.8,0.8-1.1c0.7-0.6,1.6-1,2.5-1c0.9,0,1.8,0.3,2.5,1
			c0.3,0.3,0.6,0.7,0.8,1.1c0.2,0.4,0.3,0.9,0.2,1.3c0,0.4-0.1,0.9-0.3,1.3c-0.2,0.4-0.4,0.8-0.8,1.1c-0.3,0.3-0.7,0.6-1.1,0.7
			C131.6,6.7,131.1,6.8,130.7,6.7z">
   </path>
   <path class="st1" d="M147.5,37c-2.9,0-5.2-0.7-7-2.2c-1.8-1.4-2.7-3.4-2.7-5.8c0-2.2,0.9-4.1,2.8-5.7c1.9-1.6,4.2-2.3,7-2.3
			c2.9,0,5.3,0.9,7.3,2.8v-3.1c0-1.8-0.5-3.2-1.4-4.2c-0.9-1-2.2-1.5-3.9-1.5c-3.5,0-5.6,1.8-6.4,5.3l-5.2-1.1
			c0.7-2.7,2.1-4.9,4.1-6.4s4.6-2.4,7.7-2.4c3.3,0,6,0.9,7.9,2.6c1.9,1.8,2.9,4.3,2.9,7.7v15.6h-5.5v-3.2
			C153.3,35.7,150.8,37,147.5,37z M148.6,32.8c2.5,0,4.6-1.3,6.4-3.8v-0.8c-1.7-2.1-3.9-3.1-6.4-3.1c-1.5,0-2.6,0.4-3.6,1.1
			c-0.4,0.3-0.8,0.7-1,1.2c-0.2,0.5-0.4,1-0.3,1.5c0,0.5,0.1,1.1,0.3,1.6c0.2,0.5,0.6,0.9,1,1.2C145.9,32.5,147.1,32.8,148.6,32.8
			L148.6,32.8z">
   </path>
   <path class="st1" d="M166.1,36.4V11h5.5v4.4c1.4-3.2,3.8-4.8,7.2-4.8c2,0,3.7,0.7,5,2s2,3.1,2,5.3c0,1.3-0.2,2.7-0.7,3.9l-5.2-0.5
			c0.1-0.7,0.2-1.4,0.2-2.1c0-2.6-1.1-3.9-3.2-3.9c-1.5,0-2.7,0.8-3.7,2.3c-1,1.6-1.5,3.6-1.5,6.1v12.6H166.1z">
   </path>
   <path class="st2" d="M13.4,14.9c4.2-2.3,10-5.5,10-14.9h-7c0,5.2-2.5,6.6-6.4,8.8C5.8,11.2,0,14.4,0,23.7h7
			C7,18.5,9.5,17,13.4,14.9z">
   </path>
   <path class="st2" d="M25.4,12.8c0,5.2-2.5,6.6-6.4,8.8c-4.2,2.3-10,5.5-10,14.9h7c0-5.2,2.5-6.6,6.4-8.8c4.2-2.3,10-5.5,10-14.9
			H25.4z">
   </path>
  </g>
 </g>
</svg>