<svg width="134" height="63" viewBox="0 0 134 63" fill="none" xmlns="http://www.w3.org/2000/svg">
<path d="M68.7048 13.1267V28.0796H71.9928V23.2628L73.8776 21.3571L78.3802 28.0796H82.5059L76.0975 19.0325L81.9404 13.1267H77.8357L71.9928 19.3257V13.1267H68.7048Z" fill="#1A1A1A"/>
<path d="M83.3994 20.582C83.4413 19.8839 83.6158 19.3045 83.923 18.8438C84.2301 18.3831 84.6211 18.0131 85.0957 17.7339C85.5704 17.4546 86.101 17.2592 86.6874 17.1475C87.2877 17.0218 87.8881 16.959 88.4884 16.959C89.0329 16.959 89.5844 17.0009 90.1429 17.0846C90.7013 17.1544 91.2109 17.301 91.6717 17.5244C92.1324 17.7478 92.5094 18.062 92.8026 18.4668C93.0957 18.8578 93.2423 19.3813 93.2423 20.0375V25.671C93.2423 26.1597 93.2703 26.6274 93.3261 27.0742C93.382 27.5209 93.4797 27.856 93.6193 28.0794H90.6036C90.5477 27.9119 90.4989 27.7443 90.457 27.5768C90.4291 27.3953 90.4081 27.2138 90.3942 27.0323C89.9195 27.5209 89.361 27.863 88.7188 28.0585C88.0766 28.2539 87.4204 28.3517 86.7502 28.3517C86.2336 28.3517 85.7519 28.2888 85.3052 28.1632C84.8584 28.0375 84.4675 27.8421 84.1324 27.5768C83.7973 27.3115 83.532 26.9764 83.3366 26.5715C83.1551 26.1667 83.0643 25.685 83.0643 25.1265C83.0643 24.5122 83.169 24.0096 83.3785 23.6187C83.6019 23.2138 83.8811 22.8927 84.2162 22.6553C84.5652 22.418 84.9561 22.2435 85.3889 22.1318C85.8357 22.0061 86.2825 21.9084 86.7293 21.8386C87.176 21.7688 87.6158 21.7129 88.0486 21.671C88.4814 21.6291 88.8654 21.5663 89.2005 21.4825C89.5355 21.3988 89.8008 21.2801 89.9963 21.1265C90.1917 20.959 90.2825 20.7216 90.2685 20.4145C90.2685 20.0934 90.2127 19.8421 90.101 19.6606C90.0033 19.4651 89.8636 19.3185 89.6821 19.2208C89.5146 19.1091 89.3121 19.0393 89.0748 19.0113C88.8514 18.9695 88.6071 18.9485 88.3418 18.9485C87.7554 18.9485 87.2947 19.0742 86.9596 19.3255C86.6245 19.5768 86.4291 19.9956 86.3732 20.582H83.3994ZM90.2685 22.781C90.1429 22.8927 89.9823 22.9834 89.7868 23.0532C89.6053 23.1091 89.4029 23.1579 89.1795 23.1998C88.9701 23.2417 88.7467 23.2766 88.5094 23.3045C88.272 23.3325 88.0347 23.3674 87.7973 23.4092C87.5739 23.4511 87.3505 23.507 87.1272 23.5768C86.9177 23.6466 86.7293 23.7443 86.5617 23.87C86.4081 23.9817 86.2825 24.1283 86.1847 24.3098C86.087 24.4913 86.0382 24.7216 86.0382 25.0009C86.0382 25.2661 86.087 25.4895 86.1847 25.671C86.2825 25.8525 86.4151 25.9991 86.5827 26.1108C86.7502 26.2085 86.9457 26.2784 87.1691 26.3202C87.3924 26.3621 87.6228 26.3831 87.8601 26.3831C88.4465 26.3831 88.9003 26.2853 89.2214 26.0899C89.5425 25.8944 89.7799 25.664 89.9334 25.3988C90.087 25.1195 90.1778 24.8403 90.2057 24.5611C90.2476 24.2818 90.2685 24.0585 90.2685 23.8909V22.781Z" fill="#1A1A1A"/>
<path d="M95.5504 17.2522V28.0794H98.5242V23.1998C98.5242 22.7112 98.5731 22.2574 98.6708 21.8386C98.7686 21.4197 98.9291 21.0567 99.1525 20.7495C99.3898 20.4284 99.697 20.1771 100.074 19.9956C100.451 19.8141 100.912 19.7234 101.456 19.7234C101.638 19.7234 101.826 19.7373 102.022 19.7653C102.217 19.7792 102.385 19.8002 102.524 19.8281V17.0637C102.287 16.9939 102.07 16.959 101.875 16.959C101.498 16.959 101.135 17.0148 100.786 17.1265C100.437 17.2382 100.109 17.3988 99.8017 17.6082C99.4946 17.8037 99.2223 18.048 98.985 18.3412C98.7476 18.6204 98.5591 18.9276 98.4195 19.2626H98.3776V17.2522L95.5504 17.2522Z" fill="#1A1A1A"/>
<path d="M103.564 20.582C103.606 19.8839 103.78 19.3045 104.088 18.8438C104.395 18.3831 104.786 18.0131 105.26 17.7339C105.735 17.4546 106.266 17.2592 106.852 17.1475C107.452 17.0218 108.053 16.959 108.653 16.959C109.198 16.959 109.749 17.0009 110.308 17.0846C110.866 17.1544 111.376 17.301 111.836 17.5244C112.297 17.7478 112.674 18.062 112.967 18.4668C113.26 18.8578 113.407 19.3813 113.407 20.0375V25.671C113.407 26.1597 113.435 26.6274 113.491 27.0742C113.547 27.5209 113.644 27.856 113.784 28.0794H110.768C110.712 27.9119 110.664 27.7443 110.622 27.5768C110.594 27.3953 110.573 27.2138 110.559 27.0323C110.084 27.5209 109.526 27.863 108.883 28.0585C108.241 28.2539 107.585 28.3517 106.915 28.3517C106.398 28.3517 105.917 28.2888 105.47 28.1632C105.023 28.0375 104.632 27.8421 104.297 27.5768C103.962 27.3115 103.697 26.9764 103.501 26.5715C103.32 26.1667 103.229 25.685 103.229 25.1265C103.229 24.5122 103.334 24.0096 103.543 23.6187C103.767 23.2138 104.046 22.8927 104.381 22.6553C104.73 22.418 105.121 22.2435 105.554 22.1318C106 22.0061 106.447 21.9084 106.894 21.8386C107.341 21.7688 107.78 21.7129 108.213 21.671C108.646 21.6291 109.03 21.5663 109.365 21.4825C109.7 21.3988 109.965 21.2801 110.161 21.1265C110.356 20.959 110.447 20.7216 110.433 20.4145C110.433 20.0934 110.377 19.8421 110.266 19.6606C110.168 19.4651 110.028 19.3185 109.847 19.2208C109.679 19.1091 109.477 19.0393 109.239 19.0113C109.016 18.9695 108.772 18.9485 108.506 18.9485C107.92 18.9485 107.459 19.0742 107.124 19.3255C106.789 19.5768 106.594 19.9956 106.538 20.582H103.564ZM110.433 22.781C110.308 22.8927 110.147 22.9834 109.952 23.0532C109.77 23.1091 109.568 23.1579 109.344 23.1998C109.135 23.2417 108.911 23.2766 108.674 23.3045C108.437 23.3325 108.199 23.3674 107.962 23.4092C107.739 23.4511 107.515 23.507 107.292 23.5768C107.082 23.6466 106.894 23.7443 106.726 23.87C106.573 23.9817 106.447 24.1283 106.349 24.3098C106.252 24.4913 106.203 24.7216 106.203 25.0009C106.203 25.2661 106.252 25.4895 106.349 25.671C106.447 25.8525 106.58 25.9991 106.747 26.1108C106.915 26.2085 107.11 26.2784 107.334 26.3202C107.557 26.3621 107.787 26.3831 108.025 26.3831C108.611 26.3831 109.065 26.2853 109.386 26.0899C109.707 25.8944 109.945 25.664 110.098 25.3988C110.252 25.1195 110.342 24.8403 110.37 24.5611C110.412 24.2818 110.433 24.0585 110.433 23.8909V22.781Z" fill="#1A1A1A"/>
<path d="M119.485 17.2522V14.0061H116.511V17.2522H114.71V19.2417H116.511V25.6291C116.511 26.1736 116.602 26.6134 116.784 26.9485C116.965 27.2836 117.209 27.5419 117.516 27.7234C117.838 27.9049 118.201 28.0236 118.605 28.0794C119.024 28.1492 119.464 28.1841 119.925 28.1841C120.218 28.1841 120.518 28.1771 120.825 28.1632C121.133 28.1492 121.412 28.1213 121.663 28.0794V25.7757C121.523 25.8037 121.377 25.8246 121.223 25.8386C121.07 25.8525 120.909 25.8595 120.742 25.8595C120.239 25.8595 119.904 25.7757 119.736 25.6082C119.569 25.4407 119.485 25.1056 119.485 24.603V19.2417H121.663V17.2522H119.485Z" fill="#1A1A1A"/>
<path d="M130.366 21.5035H125.528C125.542 21.2941 125.584 21.0567 125.654 20.7914C125.738 20.5262 125.87 20.2749 126.052 20.0375C126.247 19.8002 126.499 19.6047 126.806 19.4511C127.127 19.2836 127.525 19.1998 128 19.1998C128.726 19.1998 129.263 19.3953 129.612 19.7862C129.975 20.1771 130.226 20.7496 130.366 21.5035ZM125.528 23.3883H133.34C133.396 22.5506 133.326 21.7478 133.13 20.9799C132.935 20.212 132.614 19.5279 132.167 18.9276C131.734 18.3272 131.176 17.8525 130.492 17.5035C129.808 17.1405 129.005 16.959 128.083 16.959C127.26 16.959 126.506 17.1056 125.822 17.3988C125.151 17.692 124.572 18.0969 124.083 18.6134C123.595 19.1161 123.218 19.7164 122.952 20.4145C122.687 21.1126 122.555 21.8665 122.555 22.6763C122.555 23.514 122.68 24.2818 122.931 24.9799C123.197 25.678 123.567 26.2784 124.041 26.781C124.516 27.2836 125.096 27.6745 125.78 27.9537C126.464 28.219 127.232 28.3517 128.083 28.3517C129.312 28.3517 130.359 28.0724 131.225 27.514C132.09 26.9555 132.732 26.027 133.151 24.7286H130.534C130.436 25.0637 130.171 25.3848 129.738 25.692C129.305 25.9852 128.788 26.1318 128.188 26.1318C127.35 26.1318 126.708 25.9154 126.261 25.4825C125.815 25.0497 125.57 24.3517 125.528 23.3883Z" fill="#1A1A1A"/>
<path d="M68.7048 33.8599V48.8127H79.2807V46.0483H71.9928V33.8599H68.7048Z" fill="#1A1A1A"/>
<path d="M80.6998 41.3152C80.7417 40.6171 80.9162 40.0377 81.2234 39.577C81.5306 39.1162 81.9215 38.7462 82.3962 38.467C82.8709 38.1878 83.4014 37.9923 83.9878 37.8806C84.5881 37.755 85.1885 37.6921 85.7888 37.6921C86.3333 37.6921 86.8848 37.734 87.4433 37.8178C88.0018 37.8876 88.5113 38.0342 88.9721 38.2576C89.4328 38.481 89.8098 38.7951 90.103 39.2C90.3962 39.5909 90.5428 40.1145 90.5428 40.7707V46.4042C90.5428 46.8928 90.5707 47.3606 90.6265 47.8073C90.6824 48.2541 90.7801 48.5892 90.9197 48.8126H87.904C87.8482 48.645 87.7993 48.4775 87.7574 48.3099C87.7295 48.1284 87.7085 47.9469 87.6946 47.7654C87.2199 48.2541 86.6614 48.5962 86.0192 48.7916C85.377 48.9871 84.7208 49.0848 84.0506 49.0848C83.534 49.0848 83.0524 49.022 82.6056 48.8963C82.1588 48.7707 81.7679 48.5752 81.4328 48.3099C81.0977 48.0447 80.8325 47.7096 80.637 47.3047C80.4555 46.8998 80.3647 46.4181 80.3647 45.8597C80.3647 45.2454 80.4695 44.7428 80.6789 44.3518C80.9023 43.9469 81.1815 43.6258 81.5166 43.3885C81.8656 43.1511 82.2565 42.9766 82.6894 42.8649C83.1361 42.7393 83.5829 42.6415 84.0297 42.5717C84.4765 42.5019 84.9162 42.4461 85.3491 42.4042C85.7819 42.3623 86.1658 42.2995 86.5009 42.2157C86.836 42.1319 87.1012 42.0133 87.2967 41.8597C87.4921 41.6921 87.5829 41.4548 87.5689 41.1476C87.5689 40.8265 87.5131 40.5752 87.4014 40.3937C87.3037 40.1982 87.164 40.0516 86.9825 39.9539C86.815 39.8422 86.6126 39.7724 86.3752 39.7445C86.1518 39.7026 85.9075 39.6817 85.6423 39.6817C85.0559 39.6817 84.5951 39.8073 84.26 40.0586C83.925 40.3099 83.7295 40.7288 83.6736 41.3152H80.6998ZM87.5689 43.5141C87.4433 43.6258 87.2827 43.7166 87.0873 43.7864C86.9058 43.8422 86.7033 43.8911 86.4799 43.933C86.2705 43.9749 86.0471 44.0098 85.8098 44.0377C85.5724 44.0656 85.3351 44.1005 85.0977 44.1424C84.8744 44.1843 84.651 44.2401 84.4276 44.3099C84.2182 44.3797 84.0297 44.4775 83.8621 44.6031C83.7085 44.7148 83.5829 44.8614 83.4852 45.0429C83.3874 45.2244 83.3386 45.4548 83.3386 45.734C83.3386 45.9993 83.3874 46.2227 83.4852 46.4042C83.5829 46.5857 83.7155 46.7323 83.8831 46.844C84.0506 46.9417 84.2461 47.0115 84.4695 47.0534C84.6929 47.0953 84.9232 47.1162 85.1606 47.1162C85.7469 47.1162 86.2007 47.0185 86.5218 46.823C86.8429 46.6276 87.0803 46.3972 87.2339 46.1319C87.3874 45.8527 87.4782 45.5735 87.5061 45.2942C87.548 45.015 87.5689 44.7916 87.5689 44.6241V43.5141Z" fill="#1A1A1A"/>
<path d="M100.788 43.4096C100.788 43.8564 100.739 44.2892 100.641 44.708C100.544 45.1269 100.39 45.4969 100.181 45.818C99.9712 46.1391 99.7059 46.3974 99.3848 46.5928C99.0776 46.7743 98.7007 46.8651 98.2539 46.8651C97.8211 46.8651 97.4441 46.7743 97.123 46.5928C96.8019 46.3974 96.5366 46.1391 96.3272 45.818C96.1178 45.4969 95.9642 45.1269 95.8665 44.708C95.7687 44.2892 95.7199 43.8564 95.7199 43.4096C95.7199 42.9489 95.7687 42.5091 95.8665 42.0902C95.9642 41.6714 96.1178 41.3014 96.3272 40.9803C96.5366 40.6592 96.8019 40.4079 97.123 40.2264C97.4441 40.0309 97.8211 39.9332 98.2539 39.9332C98.7007 39.9332 99.0776 40.0309 99.3848 40.2264C99.7059 40.4079 99.9712 40.6592 100.181 40.9803C100.39 41.3014 100.544 41.6714 100.641 42.0902C100.739 42.5091 100.788 42.9489 100.788 43.4096ZM92.8508 33.8599V48.8127H95.678V47.4305H95.7199C96.041 48.0309 96.5157 48.4567 97.144 48.708C97.7723 48.9593 98.4843 49.085 99.2801 49.085C99.8246 49.085 100.362 48.9733 100.893 48.7499C101.423 48.5265 101.898 48.1845 102.317 47.7237C102.75 47.263 103.099 46.6766 103.364 45.9646C103.629 45.2386 103.762 44.3799 103.762 43.3887C103.762 42.3974 103.629 41.5457 103.364 40.8337C103.099 40.1077 102.75 39.5143 102.317 39.0536C101.898 38.5928 101.423 38.2508 100.893 38.0274C100.362 37.804 99.8246 37.6923 99.2801 37.6923C98.6099 37.6923 97.9607 37.825 97.3325 38.0902C96.7181 38.3415 96.2295 38.7464 95.8665 39.3049H95.8246V33.8599H92.8508Z" fill="#1A1A1A"/>
<path d="M107.957 45.2942H105.13C105.158 46.0202 105.318 46.6276 105.611 47.1162C105.919 47.5909 106.302 47.9749 106.763 48.2681C107.238 48.5613 107.775 48.7707 108.376 48.8963C108.976 49.022 109.59 49.0848 110.219 49.0848C110.833 49.0848 111.433 49.022 112.02 48.8963C112.62 48.7846 113.151 48.5822 113.611 48.289C114.072 47.9958 114.442 47.6119 114.721 47.1372C115.015 46.6485 115.161 46.0482 115.161 45.3361C115.161 44.8335 115.063 44.4147 114.868 44.0796C114.672 43.7305 114.414 43.4443 114.093 43.2209C113.772 42.9836 113.402 42.7951 112.983 42.6555C112.578 42.5159 112.159 42.3972 111.727 42.2995C111.308 42.2018 110.896 42.111 110.491 42.0272C110.086 41.9435 109.723 41.8527 109.402 41.755C109.095 41.6433 108.843 41.5037 108.648 41.3361C108.453 41.1686 108.355 40.9522 108.355 40.6869C108.355 40.4635 108.411 40.289 108.522 40.1634C108.634 40.0237 108.767 39.919 108.92 39.8492C109.088 39.7794 109.269 39.7375 109.465 39.7236C109.66 39.6956 109.842 39.6817 110.009 39.6817C110.54 39.6817 111.001 39.7864 111.391 39.9958C111.782 40.1913 111.999 40.5752 112.041 41.1476H114.868C114.812 40.4775 114.638 39.926 114.344 39.4932C114.065 39.0464 113.709 38.6904 113.276 38.4251C112.843 38.1599 112.348 37.9714 111.789 37.8597C111.245 37.748 110.679 37.6921 110.093 37.6921C109.507 37.6921 108.934 37.748 108.376 37.8597C107.817 37.9574 107.315 38.1389 106.868 38.4042C106.421 38.6555 106.058 39.0045 105.779 39.4513C105.514 39.8981 105.381 40.4705 105.381 41.1686C105.381 41.6433 105.479 42.0482 105.674 42.3832C105.87 42.7044 106.128 42.9766 106.449 43.2C106.77 43.4094 107.133 43.5839 107.538 43.7236C107.957 43.8492 108.383 43.9609 108.816 44.0586C109.877 44.282 110.7 44.5054 111.287 44.7288C111.887 44.9522 112.187 45.2873 112.187 45.734C112.187 45.9993 112.124 46.2227 111.999 46.4042C111.873 46.5717 111.713 46.7113 111.517 46.823C111.336 46.9208 111.126 46.9975 110.889 47.0534C110.665 47.0953 110.449 47.1162 110.24 47.1162C109.946 47.1162 109.66 47.0813 109.381 47.0115C109.116 46.9417 108.878 46.837 108.669 46.6974C108.46 46.5438 108.285 46.3553 108.145 46.1319C108.02 45.8946 107.957 45.6154 107.957 45.2942Z" fill="#1A1A1A"/>
<path d="M31.1062 0C22.8563 8.73089e-06 14.9443 3.27726 9.11079 9.11079C3.27726 14.9443 8.73089e-06 22.8563 0 31.1062C8.92932e-06 39.356 3.27726 47.268 9.11079 53.1015C14.9443 58.9351 22.8563 62.2123 31.1062 62.2123C39.356 62.2123 47.268 58.9351 53.1015 53.1015C58.9351 47.268 62.2123 39.356 62.2123 31.1062C62.2123 22.8563 58.9351 14.9443 53.1015 9.11079C47.268 3.27726 39.356 8.53246e-06 31.1062 0ZM32.7567 7.81117C33.2452 7.80413 33.5654 7.83092 33.8696 7.88935C34.6243 8.03448 34.676 8.13062 34.3619 8.80354C34.0493 9.4734 34.0651 9.32186 34.0549 11.7417C34.0462 13.7723 34.0035 14.5438 33.8933 14.654C33.8821 14.6653 33.6597 14.7304 33.3991 14.7988C32.5372 15.0249 32.5585 14.9979 32.4557 15.9997C32.4111 16.4326 32.3776 16.7896 32.3811 16.7931C32.3847 16.7966 33.2687 16.9849 34.3456 17.2118L36.3035 17.6242L37.3653 18.2223L38.4271 18.8205L39.2057 20.1016C39.6339 20.8064 39.9906 21.3829 39.9983 21.3829C40.006 21.3829 40.6137 21.1523 41.3488 20.8704C42.0838 20.5884 42.692 20.3644 42.7002 20.3726C42.72 20.3924 43.3595 24.77 43.3445 24.7826C43.2517 24.8609 38.9498 26.1298 38.8462 26.1096C38.7743 26.0955 38.0035 25.8653 37.1334 25.598C36.2633 25.3307 35.5446 25.1182 35.5364 25.1258C35.5281 25.1336 35.4844 26.0296 35.4393 27.1173C35.3941 28.205 35.3528 29.0977 35.3474 29.1014C35.3421 29.1051 34.9868 29.3992 34.558 29.7549L33.7783 30.4017L33.1683 30.3811C32.833 30.3696 31.2504 30.3401 29.6513 30.3153L26.7439 30.2702L25.8033 29.6892C25.2859 29.3695 24.7328 29.0292 24.5741 28.9332C24.2251 28.7219 24.2216 28.8298 24.6062 27.9872C24.7826 27.6008 24.9268 27.2596 24.9268 27.2291C24.9268 27.1939 26.1879 26.7351 28.3657 25.9778C30.3614 25.2838 31.7564 24.7778 31.6898 24.7719C31.4085 24.7472 24.9076 24.5859 24.5609 24.5948C23.9048 24.612 22.4268 23.8753 21.6904 23.1641C21.608 23.0845 21.4779 19.0826 21.5555 19.012C22.5758 18.0816 23.2071 17.6277 24.3137 17.0288L25.4318 16.4236L26.9739 16.4849C28.3196 16.5385 28.5315 16.5385 28.64 16.4843C28.7082 16.4502 29.4584 16.1376 30.3068 15.7897L31.8494 15.1569L30.3869 15.0621C29.5825 15.0099 28.8943 14.9678 28.8572 14.9684C28.7609 14.9703 27.8312 13.6729 27.7899 13.4791C27.7717 13.3936 27.6553 12.6481 27.5313 11.8225L27.3059 10.3214L27.9638 9.20377C28.4756 8.33455 28.6412 8.08558 28.7091 8.08355C28.7571 8.08202 29.6236 8.01579 30.6348 7.9361C31.6116 7.85915 32.2682 7.81822 32.7567 7.81117ZM44.9837 17.1946L45.7188 17.2173C46.1231 17.23 46.6462 17.2587 46.8814 17.2812C47.3379 17.3251 47.6367 17.4057 47.7862 17.5252C47.8777 17.5984 47.9257 18.0778 48.0258 19.9212L48.0358 20.1056L46.069 20.9371C44.9873 21.3943 44.0705 21.7787 44.0314 21.7912C43.9474 21.818 42.8912 20.3302 42.9536 20.273C42.9741 20.2542 43.2794 20.1288 43.6322 19.9941C43.9848 19.8594 44.2836 19.7432 44.2961 19.7357C44.3085 19.7282 44.296 19.3695 44.2683 18.9386C44.2405 18.5076 44.2296 18.1357 44.2439 18.1122C44.2583 18.0887 44.4304 17.8725 44.6267 17.6319L44.9837 17.1946ZM45.0871 18.6038C45.0685 18.6038 45.0646 18.6953 45.0783 18.8069C45.0919 18.9187 45.1265 19.2793 45.1549 19.6086C45.1834 19.9378 45.2125 20.2146 45.2197 20.2238C45.2377 20.2463 46.8603 19.7852 46.8581 19.7582C46.8557 19.7291 45.1293 18.6038 45.0871 18.6038ZM34.501 20.9267C34.4239 20.9675 34.2022 21.3928 33.7597 22.2426C33.3386 23.0513 32.879 23.931 32.7386 24.1975L32.4831 24.682L33.3165 24.0341L34.15 23.386L34.1741 23.0974C34.1875 22.9386 34.2778 22.4074 34.3748 21.9171C34.5107 21.2295 34.5782 20.8859 34.501 20.9267ZM23.4047 31.5833C23.5346 31.5912 23.8006 31.6774 24.3894 31.8533C24.9319 32.0155 25.8279 32.2586 26.3805 32.3936C26.9331 32.5284 27.4083 32.6508 27.4367 32.6657C27.4698 32.6831 27.3577 32.8464 27.1198 33.1267L26.7515 33.5605L26.3118 34.6583L25.8723 35.7561L27.206 35.7256C27.9395 35.7088 28.542 35.6927 28.545 35.6898C28.5478 35.6869 28.5918 35.2707 28.6427 34.7651C28.7269 33.931 28.7441 33.838 28.8308 33.7605C28.8832 33.7134 29.2367 33.4485 29.6161 33.1717L30.3057 32.6686L31.0293 33.1812L31.7529 33.694L31.8288 34.6678C31.8705 35.2035 31.9076 35.6416 31.911 35.6416C31.9145 35.6416 32.4392 35.6357 33.0772 35.6284L34.237 35.6153L33.5416 34.1747C33.159 33.3825 32.8518 32.7281 32.8588 32.7203C32.866 32.7125 33.3208 32.6612 33.8696 32.606C34.8027 32.5123 34.9136 32.492 35.5811 32.2888C35.9735 32.1694 36.3208 32.0715 36.3529 32.0715C36.385 32.0715 37.2087 32.9804 38.1833 34.0911C40.3342 36.5429 40.3498 36.5593 41.8151 37.9294C44.4611 40.4035 44.8211 40.8668 45.2086 42.2942C45.4599 43.2196 45.5666 43.4821 46.4754 45.411C46.9472 46.4126 47.3786 47.4076 47.5426 47.872C47.6989 48.3149 47.747 48.2335 47.1067 48.6089C46.8778 48.7431 46.6902 48.8756 46.6898 48.9034C46.6873 49.0696 47.2447 49.3013 49.09 49.901C51.474 50.6759 51.8714 50.9665 51.3151 51.5287C50.9155 51.9325 50.6369 51.9742 48.3351 51.9735C45.9781 51.9729 45.3401 51.9047 45.0761 51.6247C44.89 51.4273 44.8283 51.5571 45.7942 50.1095C46.2662 49.4021 46.6463 48.8183 46.6386 48.812C46.6311 48.8058 45.8456 48.8746 44.8933 48.9649L43.1618 49.129L41.8364 49.0165C41.1075 48.9546 40.4918 48.8888 40.4684 48.8703C40.4448 48.852 39.6282 47.2041 38.6537 45.2085L36.8821 41.5801L34.2073 39.8799L31.5324 38.1797L30.4208 38.2053C29.8095 38.2193 29.1586 38.2424 28.9744 38.2567L28.6397 38.2827L26.4037 40.746L24.1678 43.2093L21.3839 45.8814L18.5999 48.5535L17.7623 48.6593L16.9248 48.765L15.1917 48.5183C14.2385 48.3826 13.453 48.2772 13.4463 48.2842C13.4396 48.2912 13.8466 48.8536 14.3509 49.5339C14.8551 50.2142 15.262 50.792 15.2553 50.8181C15.2484 50.8441 15.0986 51.0905 14.9222 51.3655L14.6016 51.8657L12.9128 51.8628C10.3454 51.8584 10.2946 51.8373 10.6687 50.9291C10.8475 50.4952 10.9036 50.4328 11.5873 49.9094C12.7699 49.0043 13.1933 48.6418 13.3001 48.442C13.3329 48.3807 13.2497 48.2927 12.8164 47.9306C12.5284 47.69 12.2944 47.4622 12.2965 47.4247C12.3075 47.2095 18.1729 39.2048 19.1818 38.028C19.7425 37.3739 20.6922 36.1997 21.2922 35.4186L22.383 33.9985L22.774 33.0031C22.9891 32.4555 23.1974 31.9065 23.237 31.783C23.281 31.6457 23.2748 31.5753 23.4047 31.5833Z" fill="#1A1A1A"/>
</svg>
