<svg version="1.1" id="Layer_1" xmlns:x="ns_extend;" xmlns:i="ns_ai;" xmlns:graph="ns_graphs;" xmlns="http://www.w3.org/2000/svg" xmlns:xlink="http://www.w3.org/1999/xlink" x="0px" y="0px" viewBox="0 0 574 125.4" style="enable-background:new 0 0 574 125.4;" xml:space="preserve">
 <style type="text/css">
  .st0{fill:#22143D;}
	.st1{fill:url(#SVGID_1_);}
 </style>
 <metadata>
  <sfw xmlns="ns_sfw;">
   <slices>
   </slices>
   <sliceSourceBounds bottomLeftOrigin="true" height="125.4" width="574" x="20.5" y="13">
   </sliceSourceBounds>
  </sfw>
 </metadata>
 <g>
  <g>
   <path class="st0" d="M178.6,117.3v-79h11.8l1.1,6.4h0.6c3.4-4.4,9.1-7.5,17-7.5c14.6,0,26.2,11.9,26.2,29.4S223.6,96,209.1,96
			c-7.8,0-13.3-3.2-16.2-6.9h-0.6v28.2L178.6,117.3L178.6,117.3z M221.6,66.6c0-10.3-6.6-16.8-14.7-16.8s-14.7,6.5-14.7,16.8
			s6.6,16.8,14.7,16.8S221.6,76.9,221.6,66.6z">
   </path>
   <path class="st0" d="M242.2,66.6c0-17.1,12.3-29.4,28.8-29.4s28.8,12.3,28.8,29.4S287.4,96,271,96S242.2,83.6,242.2,66.6z
			 M286,66.6c0-10.1-6.7-16.8-15-16.8s-15.1,6.7-15.1,16.8s6.8,16.7,15.1,16.7S286,76.7,286,66.6z">
   </path>
   <path class="st0" d="M309.6,94.9V16.5h13.7v78.4C323.3,94.9,309.6,94.9,309.6,94.9z">
   </path>
   <path class="st0" d="M374,38.3h14.5l-24.6,68.9c-2.5,6.8-5.8,10.2-14.7,10.2H336v-12.7h11.2c2,0,3.1-1,3.8-2.7l1.3-3.7l-23.1-60
			h14.5l14.7,39.3h2.2L374,38.3L374,38.3z">
   </path>
   <path class="st0" d="M391.2,97.7h13.9c0.6,3.7,4.2,8.7,13,8.7c8.2,0,13.5-5.2,13.5-13v-7.9H431c-3,3.2-8.6,6.2-15.8,6.2
			c-14.5,0-25.8-11.2-25.8-27.3s11.2-27.2,25.8-27.2c7.5,0,13,3,16.5,7.3h0.6l1.1-6.2h11.9v55.2c0,15-10.1,25-27.2,25
			C398.9,118.4,391.5,105.9,391.2,97.7L391.2,97.7z M431.6,64.4c0-8.8-6.3-15-14.2-15s-14.1,6.2-14.1,15s6.3,15.1,14.1,15.1
			S431.6,73.3,431.6,64.4z">
   </path>
   <path class="st0" d="M454.7,66.6c0-17.1,12.3-29.4,28.8-29.4c16.5,0,28.8,12.3,28.8,29.4S500,96,483.5,96S454.7,83.6,454.7,66.6
			L454.7,66.6z M498.5,66.6c0-10.1-6.7-16.8-15-16.8s-15.1,6.7-15.1,16.8s6.8,16.7,15.1,16.7C491.8,83.3,498.5,76.7,498.5,66.6z">
   </path>
   <path class="st0" d="M521.8,94.9V38.3h11.8l1.1,5.4h0.6c2.2-2.6,7.8-6.5,16.3-6.5c13,0,22.4,9.4,22.4,23.7v34h-13.7V62.7
			c0-7.3-5.2-12.5-12.2-12.5s-12.7,5.5-12.7,12.5v32.2L521.8,94.9L521.8,94.9z">
   </path>
  </g>
  <linearGradient id="SVGID_1_" gradientUnits="userSpaceOnUse" x1="-0.4566" y1="23.8729" x2="135.4934" y2="102.7729" gradientTransform="matrix(1 0 0 -1 0 127.9175)">
   <stop offset="0" style="stop-color:#A726C1">
   </stop>
   <stop offset="0.88" style="stop-color:#803BDF">
   </stop>
   <stop offset="1" style="stop-color:#7B3FE4">
   </stop>
  </linearGradient>
  <path class="st1" d="M105.1,88.3l33.6-19.4c1.8-1,2.9-2.9,2.9-5V25.1c0-2-1.1-4-2.9-5L105.1,0.8c-1.8-1-4-1-5.8,0L65.8,20.2
		c-1.8,1-2.9,2.9-2.9,5v69.3L39.3,108L15.8,94.4V67.3l23.5-13.6l15.5,9V44.4l-12.7-7.3c-0.9-0.5-1.9-0.8-2.9-0.8s-2,0.3-2.9,0.8
		L2.9,56.5c-1.8,1-2.9,2.9-2.9,5v38.8c0,2.1,1.1,4,2.9,5l33.6,19.4c1.8,1,4,1,5.8,0l33.6-19.4c1.8-1,2.9-2.9,2.9-5V30.9l0.4-0.2
		l23.1-13.4l23.6,13.6v27.2l-23.6,13.6l-15.5-8.9V81l12.6,7.3C101.1,89.3,103.3,89.3,105.1,88.3L105.1,88.3z">
  </path>
 </g>
</svg>