<svg xmlns="http://www.w3.org/2000/svg" aria-label="Invision" class="__ds_svg __ds_svg_invision logo-img logo-height key--invision-logo logo-vision-img fs0lh0" focusable="false" preserveaspectratio="xMinYMin meet" role="img" viewBox="0 0 200 68.1" width="200" xmlns:xlink="http://www.w3.org/1999/xlink">
 <title>
  Invision
 </title>
 <desc>
  Invision Svg Image
 </desc>
 <path d="M95 21.9h6.4v28H95v-28zM131.1 50h6.4V22h-6.4v28zm-12.8-16.5c-3.2-1.1-6.2-1.9-6.2-4v-.2c0-1.7 1.5-2.8 4-2.8 1.1 0 2.6.2 4 .8.2 0 .2 0 .4.2.4.2.8.2 1.3.2 1.3 0 3-.6 4.7-3-3-1.9-6.8-3.2-10.2-3.2-5.5 0-9.8 3.2-9.8 8.5v.2c0 5.3 4.5 7 8.7 8.1 3.2.9 6.2 1.7 6.2 4v.2c0 1.9-1.5 3-4.4 3-1.9 0-3.8-.6-5.9-1.5-.2-.2-.8-.4-1.7-.4-1.1 0-2.8.6-4.4 2.6 3.4 2.6 7.8 4.2 11.7 4.2 5.9 0 10.4-2.8 10.4-8.7-.1-5.2-4.9-7.1-8.8-8.2zm52.9 2.5c0 7.9-6.2 14.6-14.9 14.6-8.5 0-14.8-6.4-14.8-14.6 0-7.9 6.2-14.6 14.8-14.6 8.7 0 14.9 6.6 14.9 14.6zm-6.4.1c0-4.9-3.6-9.1-8.5-9.1-5.1 0-8.3 4-8.3 8.9s3.6 9.1 8.5 9.1c5.1 0 8.3-3.9 8.3-8.9zm25.4-14.7c-4.4 0-6.8 2.3-8.7 4.9v-4.4H175v28h6.4V34.2c0-4.4 2.6-7 6.2-7 3.8 0 5.9 2.5 5.9 6.8v16h6.4V32.2c.1-6.5-3.5-10.8-9.7-10.8zm-113 21.2l-7.6-20.4h-1.5V5.9c0-3.2-2.6-5.9-5.9-5.9H5.9C2.6 0 0 2.6 0 5.9v56.6c0 3 2.6 5.7 5.9 5.7h56.6c3.2 0 5.9-2.6 5.9-5.9V35l6.1 15.1H80l11.4-28.2h-6.6l-7.6 20.7z" fill="#F36">
 </path>
 <path d="M47.7 24c3.8 0 6.8 2.6 6.8 7.9 0 1.3-.2 2.8-.6 4.4L52 43.1c-.2.8-.4 1.3-.4 1.9 0 1.1.6 1.9 1.3 1.9.9 0 2.1-.8 3.4-4.4l2.6.9c-1.5 5.5-4.4 7.8-7.9 7.8-4.2 0-6.1-2.5-6.1-5.9 0-.9.2-1.9.4-3l1.9-7c.2-.8.4-1.5.4-2.1 0-2.3-1.3-3.6-3.6-3.6-2.8 0-4.7 2.1-5.7 5.9l-3.8 15.3H28l1.1-4.9c-1.9 3.2-4.7 5.3-8.1 5.3-4 0-5.9-2.3-5.9-5.9 0-.9.2-2.1.4-3l3-12.5h-4.7l1.3-5.3h11.4L22 42.3c-.4 1.1-.4 2.1-.4 2.8 0 1.1.6 1.5 1.5 1.7h.4c1.1 0 4.7-.6 6.8-5.1l3-11.9h-4.9l1.5-5.3h10.2l-1.3 6.1c1.7-3.4 5.3-6.6 8.9-6.6zm-23.9-3.2c-2.3 0-4-1.7-4-4s1.9-4 4-4c2.3 0 4 1.7 4 4 .2 2.3-1.7 4-4 4" fill="#FFF">
 </path>
</svg>