<svg xmlns:dc="http://purl.org/dc/elements/1.1/" xmlns:cc="http://creativecommons.org/ns#" xmlns:rdf="http://www.w3.org/1999/02/22-rdf-syntax-ns#" xmlns:svg="http://www.w3.org/2000/svg" xmlns="http://www.w3.org/2000/svg" viewBox="0 0 2666.6667 762.47998" height="762.47998" width="2666.6667" xml:space="preserve" id="svg2" version="1.1" xmlns:xlink="http://www.w3.org/1999/xlink">
 <metadata id="metadata8">
  <rdf:RDF>
   <cc:Work rdf:about="">
    <dc:format>
     image/svg+xml
    </dc:format>
    <dc:type rdf:resource="http://purl.org/dc/dcmitype/StillImage">
    </dc:type>
   </cc:Work>
  </rdf:RDF>
 </metadata>
 <defs id="defs6">
 </defs>
 <g transform="matrix(1.3333333,0,0,-1.3333333,0,762.48)" id="g10">
  <g transform="scale(0.1)" id="g12">
   <path id="path14" style="fill:#ffffff;fill-opacity:1;fill-rule:nonzero;stroke:none" d="m 7461.63,3177.6 c -366.16,0 -593.59,-271.8 -593.59,-743.35 0,-432.7 199.7,-765.58 588.02,-765.58 371.68,0 615.75,299.58 615.75,776.71 0,504.79 -271.8,732.22 -610.18,732.22">
   </path>
   <g transform="scale(1.11101)" id="g16">
    <path id="path18" style="fill:#ffffff;fill-opacity:1;fill-rule:nonzero;stroke:none" d="m 15546.1,1726.66 c 0,-144.77 69.8,-259.68 264.6,-259.68 229.7,0 474.4,164.82 489.3,539.3 -104.8,14.99 -219.6,29.97 -324.5,29.97 -229.7,0 -429.4,-64.89 -429.4,-309.59">
    </path>
   </g>
   <g transform="scale(1.22699)" id="g20">
    <path id="path22" style="fill:#ffffff;fill-opacity:1;fill-rule:nonzero;stroke:none" d="m 15206.8,912.367 c -271.3,0 -420.5,158.263 -447.6,406.963 -117.6,-208 -325.6,-406.963 -655.6,-406.963 -293.8,0 -628.4,158.263 -628.4,583.293 0,501.82 483.7,619.4 949.4,619.4 113,0 230.6,-4.55 334.6,-18.11 v 67.83 c 0,207.99 -4.5,456.64 -334.6,456.64 -122,0 -217,-9.07 -312,-58.76 l -65.8,-229.46 -465.7,49.73 79.4,469.04 c 357.3,144.7 538,185.4 872.7,185.4 438.5,0 809.3,-226.06 809.3,-691.77 v -886.16 c 0,-117.56 45.2,-158.22 140.1,-158.22 27.2,0 54.2,4.54 85.9,13.56 l 4.5,-307.44 c -108.5,-58.801 -239.6,-94.973 -366.2,-94.973 z m -3129.5,45.226 881.6,3110.617 h 574.2 L 12651.5,957.593 Z m -1184.6,0 881.6,3110.617 h 574.2 L 11466.9,957.593 Z m -381.8,1306.627 h -610.36 v 732.46 h 610.36 z m 0,-1306.636 h -610.36 v 732.466 h 610.36 z m -1163.99,0 H 7565.55 L 7506.79,1265.04 8628,2553.61 h -637.43 l -90.43,-316.52 -420.48,45.23 72.33,714.37 h 1790.44 l 45.23,-307.45 -1130.41,-1288.58 h 660.15 l 94.95,316.48 461.21,-45.18 z M 6058.64,912.402 c -628.48,0 -1062.53,384.278 -1062.53,1035.338 0,596.81 361.73,1089.62 1094.15,1089.62 732.42,0 1089.61,-492.81 1089.61,-1062.48 0,-651.07 -470.21,-1062.478 -1121.23,-1062.478 z m -1316.3,45.182 H 3887.81 V 2106 c 0,352.65 -117.52,488.28 -348.11,488.28 -280.32,0 -393.34,-198.93 -393.34,-483.79 V 1400.66 H 3417.6 V 957.584 H 2563.12 V 2106 c 0,352.65 -117.57,488.28 -348.15,488.28 -280.32,0 -393.36,-198.93 -393.36,-483.79 v -709.83 h 388.86 V 957.584 H 967.087 V 1400.66 H 1238.38 V 2553.61 H 967.087 v 443.08 h 854.523 v -307.45 c 122.07,216.98 334.59,348.11 619.41,348.11 293.88,0 565.17,-140.17 664.64,-438.54 113.02,271.29 343.61,438.54 664.63,438.54 366.22,0 700.8,-221.52 700.8,-705.34 v -931.35 h 271.25 z M 0,4660.68 V 0 H 16300 V 4660.68 H 0">
    </path>
   </g>
  </g>
 </g>
</svg>