<svg version="1.1" id="Layer_1" xmlns:x="ns_extend;" xmlns:i="ns_ai;" xmlns:graph="ns_graphs;" xmlns="http://www.w3.org/2000/svg" xmlns:xlink="http://www.w3.org/1999/xlink" x="0px" y="0px" viewBox="0 0 343 56" style="enable-background:new 0 0 343 56;" xml:space="preserve">
 <style type="text/css">
  .st0{fill-rule:evenodd;clip-rule:evenodd;fill:#F4F4F6;}
	.st1{fill:url(#SVGID_1_);}
	.st2{fill:#F4F4F6;}
 </style>
 <metadata>
  <sfw xmlns="ns_sfw;">
   <slices>
   </slices>
   <sliceSourceBounds bottomLeftOrigin="true" height="56" width="343" x="-306.1" y="-210.8">
   </sliceSourceBounds>
  </sfw>
 </metadata>
 <g>
  <path class="st0" d="M252.1,47.3h18.2v-4.9h-13.3v-31h-4.9V47.3z M292,47.3h4.1V23.2h-4.2v3.1c-2.1-2.2-5-3.5-8.3-3.5
		c-7,0-12.5,5.6-12.5,12.4c0,6.9,5.6,12.5,12.5,12.5c3.3,0,6.3-1.4,8.4-3.5V47.3z M283.7,27.6c4.3,0,7.7,3.5,7.7,7.7
		c0,4.3-3.4,7.7-7.7,7.7c-4.3,0-7.7-3.4-7.7-7.7C276,31,279.5,27.6,283.7,27.6z M325.2,35.2c0,6.9-5.7,12.5-12.5,12.5
		c-3.3,0-6.3-1.4-8.4-3.5v3.1h-4.1V13.4h4.8v12.2c2-1.8,4.7-2.9,7.7-2.9C319.5,22.7,325.2,28.3,325.2,35.2z M320.2,35.2
		c0-4.2-3.5-7.7-7.7-7.7c-4.2,0-7.7,3.4-7.7,7.7c0,4.2,3.5,7.6,7.7,7.6C316.7,42.8,320.2,39.4,320.2,35.2z M339.6,28.4l2.1-3.6
		c-2-1.2-4.2-2.2-7-2c-4.6,0-8.1,2.8-8.1,6.8c0,4.2,3.9,5.8,6.3,6.8l0.1,0c3.4,1.3,4.9,2.2,4.9,3.9c0,1.4-1.1,2.9-3.5,2.9
		c-2,0-4.6-1.1-6-1.9l-1.9,4c2.1,1.3,5.1,2.5,8.1,2.5c4.9,0,8.4-3.5,8.4-7.5s-3.4-6.6-7.3-8c-0.1-0.1-0.3-0.1-0.4-0.2
		c-2.2-0.8-3.9-1.4-3.9-3c0-1.5,1.6-2.4,3.5-2.4C336.8,26.9,338.6,27.8,339.6,28.4L339.6,28.4z">
  </path>
  <linearGradient id="SVGID_1_" gradientUnits="userSpaceOnUse" x1="131.8891" y1="-174.7028" x2="131.8891" y2="-109.9206" gradientTransform="matrix(1 0 0 -1 -106 -103.5694)">
   <stop offset="0" style="stop-color:#FFF100">
   </stop>
   <stop offset="1" style="stop-color:#F05A28">
   </stop>
  </linearGradient>
  <path class="st1" d="M51.7,24.8c-0.1-0.9-0.2-2-0.6-3.2c-0.3-1.2-0.8-2.5-1.5-3.9s-1.6-2.8-2.7-4.2c-0.4-0.5-0.9-1.1-1.5-1.6
		c0.8-3.2-1-5.9-1-5.9c-3-0.2-5,0.9-5.7,1.5c-0.1,0-0.2-0.1-0.4-0.2c-0.5-0.2-1-0.4-1.6-0.6c-0.6-0.2-1.1-0.3-1.7-0.5
		c-0.6-0.1-1.2-0.2-1.7-0.3c-0.1,0-0.2,0-0.3,0C31.8,1.8,28,0,28,0c-4.2,2.7-5,6.4-5,6.4s0,0.1,0,0.2c-0.2,0.1-0.5,0.1-0.7,0.2
		c-0.3,0.1-0.6,0.2-1,0.3c-0.3,0.1-0.6,0.2-1,0.4c-0.6,0.3-1.3,0.6-1.9,0.9c-0.6,0.3-1.2,0.7-1.8,1.1c-0.1,0-0.1-0.1-0.1-0.1
		c-5.9-2.2-11,0.5-11,0.5C5.1,16,7.9,20,8.5,20.7c-0.1,0.4-0.3,0.8-0.4,1.2c-0.4,1.4-0.8,2.9-1,4.4c0,0.2-0.1,0.4-0.1,0.6
		C1.6,29.5,0,35,0,35c4.5,5.2,9.7,5.5,9.7,5.5c0.7,1.2,1.4,2.3,2.3,3.4c0.4,0.4,0.8,0.9,1.1,1.3c-1.6,4.7,0.2,8.6,0.2,8.6
		c5,0.2,8.3-2.2,9-2.8c0.5,0.2,1,0.3,1.5,0.5c1.5,0.4,3.1,0.6,4.7,0.7c0.4,0,0.8,0,1.2,0h0.2h0.1h0.2h0.2c2.4,3.4,6.5,3.9,6.5,3.9
		c3-3.1,3.1-6.2,3.1-6.9V49v-0.1c0.6-0.4,1.2-0.9,1.8-1.4c1.2-1.1,2.2-2.3,3.1-3.6c0.1-0.1,0.2-0.2,0.2-0.4c3.4,0.2,5.7-2.1,5.7-2.1
		C50,38,48,36.3,47.6,36h-0.1c0-0.2,0-0.4,0-0.6c0-0.4,0-0.8,0-1.1v-0.5v-0.1v-0.1v-0.1v-0.2V33c0-0.1,0-0.2,0-0.3
		c0-0.1,0-0.2,0-0.3v-0.3v-0.3c-0.1-0.4-0.1-0.8-0.2-1.1c-0.4-1.5-0.9-2.9-1.7-4.2c-0.8-1.3-1.7-2.4-2.8-3.4c-1.1-1-2.3-1.7-3.6-2.3
		c-1.3-0.6-2.6-0.9-4-1.1c-0.7-0.1-1.3-0.1-2-0.1h-0.2H33h-0.1h-0.1h-0.2c-0.1,0-0.2,0-0.3,0c-0.3,0-0.7,0.1-1,0.1
		c-1.3,0.2-2.6,0.7-3.7,1.4s-2.1,1.5-2.9,2.4c-0.8,0.9-1.4,2-1.8,3.1c-0.4,1.1-0.6,2.2-0.7,3.3c0,0.3,0,0.5,0,0.8c0,0.1,0,0.1,0,0.2
		v0.2c0,0.1,0,0.3,0,0.4c0.1,0.5,0.2,1.1,0.3,1.6c0.3,1,0.8,1.9,1.3,2.7c0.6,0.8,1.3,1.4,2,1.9c0.7,0.5,1.5,0.9,2.3,1.1
		c0.8,0.2,1.5,0.3,2.3,0.3c0.1,0,0.2,0,0.3,0h0.1h0.1c0.1,0,0.2,0,0.2,0s0,0,0.1,0h0.1h0.1c0.1,0,0.2,0,0.3,0c0.1,0,0.2,0,0.3-0.1
		c0.2,0,0.3-0.1,0.5-0.1c0.3-0.1,0.6-0.2,0.9-0.4c0.3-0.1,0.5-0.3,0.8-0.5c0.1,0,0.1-0.1,0.2-0.2c0.3-0.2,0.3-0.6,0.1-0.8
		c-0.2-0.2-0.5-0.3-0.7-0.1c-0.1,0-0.1,0.1-0.2,0.1c-0.2,0.1-0.4,0.2-0.7,0.3c-0.2,0.1-0.5,0.1-0.7,0.2c-0.1,0-0.3,0-0.4,0
		c-0.1,0-0.1,0-0.2,0c-0.1,0-0.1,0-0.2,0c-0.1,0-0.1,0-0.2,0c-0.1,0-0.2,0-0.2,0h-0.1h-0.1c-0.1,0-0.1,0-0.2,0
		c-0.6-0.1-1.1-0.2-1.7-0.5c-0.6-0.2-1.1-0.6-1.6-1c-0.5-0.4-0.9-1-1.2-1.5c-0.3-0.5-0.6-1.2-0.7-1.9c-0.1-0.3-0.1-0.7-0.1-1
		c0-0.1,0-0.2,0-0.3v-0.1v-0.1c0-0.2,0-0.4,0.1-0.6c0.3-1.5,1-2.9,2.2-4.1c0.3-0.3,0.6-0.5,0.9-0.8c0.3-0.2,0.7-0.4,1-0.6
		c0.4-0.2,0.8-0.3,1.1-0.4c0.4-0.1,0.8-0.2,1.2-0.2c0.2,0,0.4,0,0.6,0h0.1h0.2h0.1H33c0.4,0,0.9,0.1,1.3,0.2c0.9,0.2,1.7,0.5,2.5,1
		c1.6,0.9,2.9,2.3,3.8,3.9c0.4,0.8,0.7,1.7,0.9,2.6c0,0.2,0.1,0.5,0.1,0.7V33v0.2c0,0.1,0,0.1,0,0.2c0,0.1,0,0.1,0,0.2v0.2V34
		c0,0.1,0,0.3,0,0.4c0,0.3,0,0.5-0.1,0.8c0,0.2-0.1,0.5-0.1,0.7c0,0.2-0.1,0.5-0.2,0.7c-0.1,0.5-0.3,1-0.5,1.4
		c-0.4,0.9-0.9,1.8-1.5,2.7c-1.2,1.6-2.8,3-4.7,3.8c-0.9,0.4-1.9,0.7-2.9,0.9c-0.5,0.1-1,0.1-1.5,0.2H30h-0.1h-0.2h-0.2h-0.1
		c0.1,0,0,0,0,0c-0.3,0-0.5,0-0.8,0c-1.1-0.1-2.2-0.3-3.2-0.6c-1-0.3-2.1-0.7-3-1.2c-1.9-1-3.6-2.4-5-4.1c-0.7-0.8-1.3-1.7-1.7-2.7
		c-0.5-1-0.9-2-1.2-3c-0.3-1-0.5-2.1-0.5-3.1v-0.2v-0.1v-0.2v-0.6v-0.1v-0.2v-0.1c0-0.1,0-0.3,0-0.4c0-0.5,0.1-1.1,0.1-1.6
		c0.1-0.5,0.2-1.1,0.3-1.6c0.1-0.5,0.2-1.1,0.4-1.6c0.3-1,0.7-2,1.1-3c0.9-1.9,2-3.6,3.4-4.9c0.3-0.3,0.7-0.7,1.1-1
		c0.4-0.3,0.8-0.6,1.2-0.8c0.4-0.3,0.8-0.5,1.2-0.7c0.2-0.1,0.4-0.2,0.6-0.3c0.1,0,0.2-0.1,0.3-0.1c0.1,0,0.2-0.1,0.3-0.1
		c0.4-0.2,0.9-0.3,1.3-0.5c0.1,0,0.2-0.1,0.3-0.1c0.1,0,0.2-0.1,0.3-0.1c0.2-0.1,0.5-0.1,0.7-0.2c0.1,0,0.2-0.1,0.4-0.1
		c0.1,0,0.2,0,0.4-0.1c0.1,0,0.2,0,0.4-0.1H28h0.2c0.1,0,0.2,0,0.4-0.1c0.1,0,0.3,0,0.4-0.1c0.1,0,0.3,0,0.4,0c0.1,0,0.2,0,0.3,0
		h0.2H30h0.1c0.1,0,0.3,0,0.4,0h0.2c0,0,0.1,0,0,0h0.1c0.1,0,0.2,0,0.3,0c0.5,0,0.9,0,1.4,0c0.9,0,1.8,0.1,2.7,0.3
		c1.7,0.3,3.3,0.9,4.8,1.6c1.5,0.7,2.8,1.6,3.9,2.6c0.1,0.1,0.1,0.1,0.2,0.2c0.1,0.1,0.1,0.1,0.2,0.2c0.1,0.1,0.3,0.2,0.4,0.4
		c0.1,0.2,0.3,0.2,0.4,0.4c0.1,0.2,0.3,0.3,0.4,0.4c0.5,0.5,0.9,1,1.3,1.6c0.8,1,1.5,2.1,2,3.1c0,0.1,0.1,0.1,0.1,0.2
		c0,0.1,0.1,0.1,0.1,0.2c0.1,0.1,0.1,0.2,0.2,0.4c0.1,0.1,0.1,0.2,0.2,0.4c0.1,0.1,0.1,0.2,0.2,0.4c0.2,0.5,0.4,0.9,0.5,1.3
		c0.2,0.7,0.4,1.3,0.5,1.8c0.1,0.2,0.3,0.4,0.5,0.3c0.2,0,0.4-0.2,0.4-0.4C51.8,26.2,51.8,25.5,51.7,24.8z">
  </path>
  <path class="st2" d="M100.2,30.2c-0.4,9.7-8.1,17.4-17.7,17.4c-10.1,0-17.6-8.2-17.6-18.1c0-9.9,8.2-18.2,18.1-18.2
		c4.5,0,8.9,1.9,12.6,5.4l-2.9,3.6c-2.9-2.5-6.3-4.2-9.6-4.2c-7.3,0-13.2,6-13.2,13.3c0,7.5,5.7,13.2,12.8,13.2
		c6.5,0,11.5-4.7,12.5-10.8H80.6v-4.3h19.8L100.2,30.2z">
  </path>
  <path class="st2" d="M117.1,27.9h-2.7c-3,0-5.4,2.4-5.4,5.4v14.1h-4.8V23.3h4v2c1.3-1.3,3.4-2,5.7-2h5.2L117.1,27.9z">
  </path>
  <path class="st2" d="M143.3,47.3h-4.1v-3.1c-3.2,3.1-8.2,4.6-13.2,2.4c-3.8-1.7-6.6-5.1-7.3-9.2c-1.5-7.7,4.5-14.6,12.1-14.6
		c3.2,0,6.2,1.3,8.3,3.4v-3.1h4.2V47.3z M138.4,37.1c1.1-4.9-2.6-9.3-7.4-9.3c-4.2,0-7.6,3.4-7.6,7.6c0,4.7,4.1,8.4,9,7.5
		C135.3,42.3,137.7,40,138.4,37.1z">
  </path>
  <path class="st2" d="M153,21.9v1.4h7.7v4.3H153v19.9h-4.8V22.1c0-5.3,3.8-8.5,8.6-8.5h5.8l-1.9,4.6h-3.9
		C154.7,18.2,153,19.8,153,21.9z">
  </path>
  <path class="st2" d="M186.2,47.3h-4.1v-3.1c-3.2,3.1-8.2,4.6-13.2,2.4c-3.8-1.7-6.6-5.1-7.3-9.2c-1.5-7.7,4.6-14.6,12.2-14.6
		c3.2,0,6.2,1.3,8.3,3.4v-3.1h4.2L186.2,47.3z M181.3,37.1c1.1-4.9-2.6-9.3-7.4-9.3c-4.2,0-7.6,3.4-7.6,7.6c0,4.7,4.1,8.4,9,7.5
		C178.2,42.3,180.6,40,181.3,37.1z">
  </path>
  <path class="st2" d="M212,33.1v14.2h-4.8V33.1c0-3-2.5-5.4-5.4-5.4c-3.1,0-5.5,2.4-5.5,5.4v14.2h-4.8V23.3h4v2.1
		c1.7-1.6,4.1-2.5,6.5-2.5C207.6,22.9,212,27.5,212,33.1z">
  </path>
  <path class="st2" d="M240.3,47.3h-4.1v-3.1c-3.2,3.1-8.2,4.6-13.2,2.4c-3.8-1.7-6.6-5.1-7.3-9.2c-1.5-7.7,4.6-14.6,12.2-14.6
		c3.2,0,6.2,1.3,8.3,3.4v-3.1h4.2L240.3,47.3z M235.4,37.1c1.1-4.9-2.6-9.3-7.4-9.3c-4.2,0-7.6,3.4-7.6,7.6c0,4.7,4.1,8.4,9,7.5
		C232.3,42.3,234.7,40,235.4,37.1z">
  </path>
 </g>
</svg>