<svg version="1.1" id="Layer_1" xmlns:x="ns_extend;" xmlns:i="ns_ai;" xmlns:graph="ns_graphs;" xmlns="http://www.w3.org/2000/svg" xmlns:xlink="http://www.w3.org/1999/xlink" x="0px" y="0px" viewBox="0 0 209.8 52" style="enable-background:new 0 0 209.8 52;" xml:space="preserve">
 <style type="text/css">
  .st0{fill:#003545;}
 </style>
 <metadata>
  <sfw xmlns="ns_sfw;">
   <slices>
   </slices>
   <sliceSourceBounds bottomLeftOrigin="true" height="52" width="209.8" x="95.1" y="-226">
   </sliceSourceBounds>
  </sfw>
 </metadata>
 <g>
  <g>
   <polygon class="st0" points="100.5,17.7 105.4,36.7 101.7,36.7 98.4,23 92.3,36.7 89.1,36.7 83,23.1 79.6,36.7 76,36.7 80.9,17.7 
			84.1,17.7 90.7,32.4 97.3,17.7 		">
   </polygon>
   <g>
    <path class="st0" d="M110.3,29.7c0,2.6,1.6,4.7,4.7,4.7c3,0,4.6-2.1,4.6-4.7c0-2.5-1.7-4.7-4.8-4.7
				C111.8,25.1,110.3,27.3,110.3,29.7 M119.4,25.1v-2.2h3.6v13.9h-3.6v-2.2c-0.9,1.6-2.9,2.5-5.3,2.5c-4.9,0-7.7-3.5-7.7-7.5
				c0-3.9,2.6-7,7.2-7C116.2,22.5,118.4,23.4,119.4,25.1">
    </path>
    <path class="st0" d="M131.1,36.7h-3.6V22.9h3.6V26c0.9-2.1,2.9-3.4,5-3.4c0.8,0,1.5,0.1,2.2,0.4l-0.8,2.6
				c-0.6-0.2-1.3-0.3-1.9-0.3c-2.6,0-4.6,1.9-4.6,4.8V36.7z">
    </path>
    <path class="st0" d="M140.3,22.9h3.6V33c0,0.6,0.1,1.1,0.7,1.1c0.2,0,0.5,0,0.7-0.1l0.6,2.6c-0.8,0.3-1.6,0.4-2.4,0.4
				c-1.5,0-3.1-0.4-3.1-3.8V22.9z M140.1,19.2c0-1,0.8-1.8,1.8-1.9c0,0,0.1,0,0.1,0c1,0,1.9,0.8,1.9,1.8c0,0,0,0.1,0,0.1
				c0,0.9-0.6,1.8-1.9,1.8c-1,0-1.9-0.7-1.9-1.8C140.1,19.3,140.1,19.2,140.1,19.2">
    </path>
    <path class="st0" d="M150.7,29.7c0,2.6,1.6,4.7,4.7,4.7c3,0,4.6-2.1,4.6-4.7c0-2.5-1.7-4.7-4.8-4.7
				C152.2,25.1,150.7,27.3,150.7,29.7 M159.9,25.1v-2.2h3.6v13.9h-3.6v-2.2c-0.9,1.6-2.9,2.5-5.3,2.5c-4.9,0-7.7-3.5-7.7-7.5
				c0-3.9,2.6-7,7.2-7C156.7,22.5,158.8,23.4,159.9,25.1">
    </path>
    <path class="st0" d="M171.3,19.4v15.7h6.5c5.7,0,7.9-3.9,7.9-7.9c0-4.6-2.7-7.8-7.9-7.8H171.3z M168.9,17.7h8.6
				c7.2,0,10.8,4,10.8,9.5c0.1,5.7-3.9,9.5-10.1,9.5h-9.2V17.7z">
    </path>
    <path class="st0" d="M202.2,27.6h-7.9v7.5h8.3c2.3,0,4.8-0.8,4.8-3.7C207.3,28.1,204.5,27.6,202.2,27.6L202.2,27.6z M202.1,26
				c3.8,0,4.6-1.4,4.6-3.3c0-2.8-1.7-3.4-4.6-3.4h-7.8V26H202.1z M202.9,36.7H192v-19h9.8c3.8,0,7.3,0.7,7.3,4.9
				c0,3-1.8,3.8-3.8,4.1c2.8,0.2,4.4,2,4.4,4.8C209.8,35.9,206,36.7,202.9,36.7">
    </path>
    <path class="st0" d="M79.5,0.3C79.3,0.1,79,0,78.8,0C78,0,77,0.5,76.5,0.8c-0.1,0.1-0.2,0.1-0.2,0.1c-0.9,0.4-1.9,0.7-2.9,0.7
				c-1,0-1.9,0.1-3.1,0.2c-6.8,0.7-9.9,5.9-12.8,11c-1.6,2.7-3.2,5.6-5.5,7.8c-0.5,0.5-1,0.9-1.5,1.3c-2.3,1.7-5.3,3-7.6,3.8
				c-2.2,0.8-4.6,1.6-6.9,2.3c-2.1,0.7-4.1,1.3-6,2c-0.8,0.3-1.5,0.5-2.2,0.8c-1.7,0.6-2.9,1-4.7,2.2c-0.7,0.5-1.4,1-1.9,1.4
				c-1.4,1.1-2.6,2.4-3.7,3.9c-0.9,1.3-1.9,2.6-3.1,3.7c-0.4,0.4-1,0.5-2,0.5c-1.2,0-2.6-0.2-4.1-0.5c-1.5-0.3-3.1-0.5-4.5-0.5
				c-1.1,0-2,0.2-2.6,0.5c0,0-1.1,0.6-1.5,1.4l0.4,0.2c0.7,0.4,1.3,0.8,1.9,1.3c0.6,0.5,1.2,1,2,1.4c0.2,0.1,0.4,0.2,0.6,0.4
				c-0.2,0.3-0.5,0.6-0.7,1c-1.6,2.1-2.5,3.4-2,4.1C2.4,51.9,2.7,52,3,52c3.4,0,5.3-0.9,7.6-2c0.7-0.3,1.4-0.7,2.2-1
				c1.4-0.6,2.8-1.5,4.4-2.5c2.1-1.3,4.2-2.7,6.2-3.3c1.7-0.5,3.5-0.8,5.2-0.7c2.2,0,4.5,0.3,6.7,0.6c1.7,0.2,3.4,0.4,5,0.5
				c0.7,0,1.3,0.1,1.8,0.1c0.8,0,1.6,0,2.3-0.1l0.2-0.1c1.2-0.7,1.7-2.3,2.3-3.8c0.3-1,0.6-1.8,1.1-2.4c0,0,0.1-0.1,0.1-0.1
				c0,0,0.1,0,0.1,0v0c-0.3,5.9-2.6,9.6-5,12.9l-1.6,1.7c0,0,2.2,0,3.5-0.5c4.6-1.4,8.1-4.4,10.7-9.3c0.6-1.2,1.2-2.5,1.7-3.8
				c0-0.1,0.4-0.3,0.4,0.3c0,0.2,0,0.4,0,0.5c0,0.1,0,0.2,0,0.3c-0.1,0.8-0.3,2.5-0.3,2.5L59,41c3.5-2.2,6.1-6.6,8.1-13.4
				c0.8-2.8,1.5-5.7,2-8.2c0.6-3,1.2-5.6,1.9-6.6c1-1.6,2.5-2.6,4-3.7l0.6-0.4c1.9-1.3,3.7-2.8,4.1-5.6V3.1
				C80.1,1.1,79.8,0.5,79.5,0.3">
    </path>
   </g>
  </g>
 </g>
</svg>